<svg width="128" height="128" xmlns="http://www.w3.org/2000/svg" stroke="null" style="vector-effect: non-scaling-stroke;" preserveAspectRatio="xMidYMid meet" version="1.0">
 <metadata stroke="null" style="vector-effect: non-scaling-stroke;">Created by potrace 1.15, written by Peter Selinger 2001-2017</metadata>

 <g stroke="null">
  <title stroke="null">Layer 1</title>
  <g stroke="null" id="svg_1" fill="#4caf50" transform="translate(0 880) scale(0.1 -0.1)">
   <path stroke="null" id="svg_2" d="m1170.5576,8753.60635c-87.11953,-7.09586 -169.94249,-50.17786 -255.05087,-132.79394c-42.96556,-41.68817 -93.88432,-102.38311 -129.26234,-154.08152c-50.0046,-73.11269 -94.79848,-150.78701 -117.37825,-203.49911c-7.77037,-17.99307 -14.90082,-29.39713 -16.91198,-26.60947c-1.37124,1.90068 0.82274,7.98284 5.48496,15.33212c9.32444,14.57185 8.95878,23.56839 -1.37124,34.4656l-4.93647,5.06847l0.63991,5.95545c2.37682,23.82181 29.43598,107.83172 51.19301,159.14999c10.33002,24.45537 27.15058,59.93467 36.01794,75.90035c8.77594,15.83897 20.84287,32.94506 27.97332,39.66079c3.01673,2.78766 10.2386,8.23627 16.08923,12.16433c11.88409,7.85613 15.81498,12.79789 16.82056,21.03415c0.82274,6.84244 -0.09142,10.26365 -2.65107,10.26365c-2.65107,0 -15.44932,-10.64379 -25.87075,-21.28758c-10.2386,-10.64379 -27.69907,-34.84574 -38.12051,-52.83881c-28.33899,-49.03746 -57.4093,-123.67069 -85.10837,-218.19767c-4.47939,-15.33212 -7.67895,-24.58208 -8.59311,-24.96222c-0.82274,-0.38014 -3.65664,-0.76027 -6.39913,-1.01369l-5.02788,-0.38014l-7.58753,24.7088c-19.83729,64.74972 -44.24538,124.93781 -68.65348,169.79378c-28.61323,52.33196 -60.88311,93.13315 -83.5543,105.17077c-11.70126,6.33559 -14.99224,3.80135 -10.7871,-8.23627c2.55965,-7.34928 9.23302,-13.43145 20.02012,-18.37321c4.5708,-2.02739 9.59869,-4.68834 11.24418,-5.82874c14.35232,-10.13694 38.21192,-43.082 58.14063,-80.46198c27.69907,-52.07854 55.67239,-124.55767 69.75047,-181.32455l3.10815,-12.16433l-5.6678,-8.23627c-3.10815,-4.43491 -5.94205,-9.63009 -6.30771,-11.53077c-0.91416,-5.06847 1.18841,-10.64379 7.9532,-20.52731c6.30771,-9.24996 7.86178,-13.05131 6.58196,-16.34582c-0.63991,-1.52054 -1.55407,-0.50685 -4.38797,4.68834c-75.69252,138.49597 -166.0116,255.95778 -265.56372,345.16287c-56.58655,50.68471 -110.15638,84.39004 -163.1777,102.50983c-37.20635,12.67118 -66.18524,17.86636 -108.78514,19.26019l-23.8596,0.76027l-3.93089,-6.20888c-7.22187,-11.40406 -9.96435,-22.42798 -10.7871,-42.95529c-2.19399,-59.1744 26.87633,-154.20823 66.36807,-217.56412c26.05358,-41.56146 25.68792,-40.80119 25.68792,-59.1744c0,-6.96915 0.45708,-15.71226 1.00558,-19.3869c0.5485,-3.67464 5.21072,-18.62663 10.42143,-33.3252c10.87851,-30.66425 13.0725,-39.53407 16.36348,-66.27026c5.02788,-39.66079 8.13603,-51.19156 16.08923,-59.55453l4.11372,-4.43491l0.5485,-17.2328c0.45708,-13.05131 1.18841,-20.02046 3.01673,-28.63686c6.12488,-29.14371 20.56862,-57.90728 35.19519,-69.81819c1.55407,-1.26712 2.8339,-2.78766 2.8339,-3.29451c0,-0.50685 -1.37124,-3.16779 -3.10815,-5.70203c-6.94762,-10.7705 -9.32444,-21.79443 -10.60427,-50.30457c-2.74248,-58.79426 -2.92531,-61.3285 -7.31329,-75.14008l-2.01115,-6.58901l2.2854,-6.71572c1.46266,-4.18149 2.74248,-11.15064 3.3824,-18.11978c2.10257,-23.31497 3.47381,-29.65056 7.86178,-36.11286l2.19399,-3.29451l-1.91974,-6.71572c-1.27983,-4.94176 -1.82832,-9.75681 -1.82832,-17.86636c0,-13.05131 1.09699,-20.27388 5.1193,-32.43821c3.47381,-10.51708 8.22745,-18.2465 14.71799,-24.07524c4.47939,-3.92806 4.75364,-4.56162 5.30213,-10.89721c1.46266,-14.57185 9.23302,-33.70533 19.47163,-47.51692c5.48496,-7.34928 7.9532,-9.50338 21.39136,-17.99307c2.2854,-1.52054 8.59311,-8.36298 13.98666,-15.33212c7.9532,-10.26365 10.60427,-12.9246 14.44374,-14.57185c2.55965,-1.01369 5.85063,-1.90068 7.22187,-1.90068c4.29656,0 10.2386,-3.67464 16.82056,-10.64379c10.87851,-11.53077 10.33002,-11.15064 21.39136,-11.40406l10.05577,-0.12671l15.81498,-11.02392c20.84287,-14.57185 26.05358,-16.0924 37.48059,-11.15064c6.85621,3.04108 14.26091,3.16779 26.78491,0.63356c5.02788,-1.01369 13.0725,-1.77396 17.82614,-1.77396c9.96435,-0.12671 13.16392,1.39383 22.57977,10.7705c7.22187,7.22257 11.79267,10.01023 20.02012,12.41775c8.68453,2.40752 13.43816,5.95545 19.56304,14.57185c9.05019,12.54447 25.5965,50.43129 43.33122,98.9619c19.38021,53.09223 34.28103,105.29748 55.03248,192.6019c2.37682,10.13694 4.47939,17.48622 4.5708,16.47253c0.18283,-1.01369 0.73133,-16.97938 1.27983,-35.4793c2.2854,-76.53391 6.67337,-108.33857 17.82614,-127.21862l2.19399,-3.80135l1.82832,3.16779c5.1193,8.6164 10.05577,28.13001 11.88409,46.75664c0.45708,5.19518 1.18841,33.57862 1.55407,63.10246c0.27425,29.39713 0.82274,53.47237 1.18841,53.47237c0.27425,0 2.19399,-6.4623 4.11372,-14.31843c10.69568,-42.82858 22.39694,-80.08184 43.60547,-139.00282c32.63554,-90.85234 52.83849,-131.65353 73.68136,-149.01305c4.84505,-3.92806 7.22187,-4.94176 19.92871,-8.10955c3.93089,-0.88698 7.86178,-3.29451 13.71241,-8.23627c4.5708,-3.67464 9.50727,-7.47599 10.96993,-8.36298c4.29656,-2.28081 14.35232,-1.64725 29.16173,1.90068c11.24418,2.78766 16.54631,3.29451 30.62439,3.29451c19.19738,0 18.46605,-0.12671 32.54412,11.27735c13.89524,11.40406 20.02012,15.20541 27.15058,16.59924c3.65664,0.76027 7.9532,1.64725 9.59869,2.02739c1.64549,0.38014 6.49054,4.18149 10.96993,8.6164c10.2386,10.13694 12.34117,11.65748 20.20295,14.06501c8.5017,2.66095 11.15276,5.32189 19.38021,19.3869c7.77037,13.17802 10.42143,16.0924 15.99781,17.2328c6.03346,1.26712 11.24418,6.84244 18.92313,19.89375c8.95878,15.20541 11.24418,22.30127 12.524,38.39367c1.18841,14.44514 1.73691,16.0924 5.94205,19.64032c6.49054,5.57532 12.34117,18.11978 15.72357,33.83204c2.46823,11.27735 2.2854,32.81835 -0.45708,43.46214l-2.01115,8.10955l3.01673,4.3082l3.01673,4.3082l0.5485,21.79443c0.5485,17.99307 0.91416,23.06154 2.65107,29.27042c2.46823,9.50338 2.19399,11.91091 -4.02231,31.67794c-6.12488,19.26019 -6.58196,22.5547 -8.31886,52.7121c-1.82832,34.08547 -4.20514,44.72926 -11.51843,52.96552c-1.46266,1.64725 -2.65107,3.42122 -2.65107,3.92806c0,0.38014 1.37124,1.90068 3.01673,3.29451c5.02788,4.05478 14.44374,17.35951 18.55746,26.22934c8.77594,18.49992 12.98108,41.18133 13.80383,73.23941l0.5485,19.64032l4.47939,5.57532c8.04462,9.88352 9.78152,17.99307 12.15834,55.87989c2.19399,35.60601 4.02231,45.2361 13.98666,75.39351c8.68453,26.48276 10.60427,37.6334 9.41586,54.99291l-0.63991,9.24996l6.30771,13.55816c24.95659,52.96552 39.49175,86.79757 48.72477,113.66046c16.27206,47.26349 24.13385,92.24617 22.85402,131.01997c-0.73133,24.20195 -3.29098,37.12655 -9.59869,49.16417l-2.8339,5.32189l-8.04462,-0.12671c-4.38797,-0.12671 -13.52958,-0.76027 -20.29437,-1.26712zm-40.40591,-15.0787c4.84505,-3.04108 5.57638,-5.57532 2.92531,-9.50338c-3.56523,-5.19518 -11.24418,-8.48969 -21.66561,-9.24996c-9.23302,-0.63356 -9.41586,-0.50685 -9.41586,2.1541c0,13.68487 16.91198,23.6951 28.15615,16.59924zm65.54533,-6.33559c1.55407,-0.88698 2.2854,-2.02739 2.10257,-3.54793c-0.27425,-1.64725 -1.64549,-2.40752 -6.67337,-3.04108c-3.56523,-0.63356 -7.4047,-0.63356 -8.5017,-0.38014c-1.91974,0.63356 -2.01115,1.01369 -0.91416,2.78766c2.74248,4.68834 9.32444,6.58901 13.98666,4.18149zm-36.29218,-16.97938c3.56523,-2.53424 6.58196,-8.86982 6.58196,-13.81158c0,-5.57532 -5.02788,-11.78419 -10.33002,-12.9246c-9.96435,-2.1541 -20.75145,6.08217 -19.47163,14.82528c2.01115,13.81158 12.88967,19.3869 23.21968,11.91091zm-1016.36399,-23.6951c4.29656,-3.16779 8.5017,-10.51708 8.04462,-13.68487c-0.63991,-4.43491 -29.07031,-0.88698 -34.18961,4.18149c-2.55965,2.66095 -0.45708,7.85613 4.47939,11.02392c5.48496,3.54793 16.08923,2.78766 21.66561,-1.52054zm965.99373,2.53424c9.23302,-1.64725 17.82614,-7.09586 20.38579,-12.79789c5.48496,-12.54447 -1.46266,-24.96222 -16.27206,-29.017c-14.16949,-3.80135 -40.31449,2.40752 -50.64451,11.91091c-6.30771,5.95545 -3.56523,15.45884 6.49054,22.30127c11.15276,7.60271 25.41367,10.39037 40.04024,7.60271zm86.57103,-7.60271c4.75364,-5.19518 1.64549,-10.39037 -7.13045,-12.03762c-5.75921,-1.14041 -8.77594,0.12671 -8.77594,3.67464c0,8.74311 10.51285,14.31843 15.9064,8.36298zm-1129.44568,-6.58901c6.21629,-3.04108 3.93089,-5.95545 -4.66222,-5.95545c-2.2854,0 -4.84505,0.38014 -5.6678,0.76027c-1.46266,0.76027 -2.01115,4.43491 -0.82274,5.95545c0.91416,1.39383 7.77037,0.88698 11.15276,-0.76027zm983.54562,-3.04108c1.55407,-1.64725 2.55965,-3.92806 2.74248,-6.4623c0.45708,-5.70203 -2.37682,-7.85613 -10.05577,-7.85613c-5.39355,0 -6.30771,0.38014 -7.58753,2.91437c-2.01115,4.43491 -2.65107,10.26365 -1.18841,11.91091c3.19956,3.67464 12.34117,3.29451 16.08923,-0.50685zm-41.86857,-1.52054c0,-1.26712 -0.82274,-3.80135 -1.82832,-5.57532c-2.2854,-3.92806 -11.88409,-10.7705 -16.82056,-11.91091l-3.56523,-0.76027l1.73691,4.05478c4.38797,10.51708 20.4772,21.66771 20.4772,14.19172zm-900.17415,-5.06847c6.85621,-2.28081 10.42143,-10.89721 7.9532,-19.13348c-1.55407,-5.19518 -5.39355,-8.74311 -11.33559,-10.39037c-4.20514,-1.26712 -5.48496,-1.14041 -9.14161,0.76027c-5.48496,2.91437 -7.31329,6.71572 -6.67337,13.68487c0.63991,6.20888 4.20514,11.78419 9.41586,14.31843c4.20514,2.1541 5.21072,2.1541 9.78152,0.76027zm913.79515,-9.88352c2.10257,-0.76027 2.10257,-1.14041 1.73691,-11.02392c-0.63991,-15.45884 -5.48496,-26.10263 -14.90082,-32.43821c-4.02231,-2.66095 -15.17507,-5.19518 -18.92313,-4.18149c-2.10257,0.50685 -2.19399,0.88698 -1.55407,6.4623c3.10815,26.98961 19.01454,46.62993 33.64112,41.18133zm144.25458,-1.77396c4.11372,-2.1541 6.67337,-6.20888 6.67337,-10.64379c0,-9.50338 -8.13603,-18.37321 -16.91198,-18.37321c-5.57638,0 -13.621,3.04108 -17.09481,6.58901c-5.6678,5.57532 -1.55407,17.10609 7.67895,21.66771c4.66222,2.28081 15.99781,2.78766 19.65446,0.76027zm-981.99154,-10.13694c9.41586,-3.54793 12.43259,-8.10955 10.14719,-15.45884c-2.65107,-8.99654 -13.71241,-18.75334 -26.145,-23.18825c-4.38797,-1.52054 -8.68453,-1.90068 -17.00339,-1.52054c-10.2386,0.50685 -11.51843,0.76027 -17.09481,4.68834c-6.49054,4.3082 -10.14719,9.63009 -11.06135,16.0924c-1.55407,10.13694 9.87294,17.73965 31.44713,20.90744c8.31886,1.14041 24.68234,0.38014 29.71023,-1.52054zm791.20618,2.02739c0,-0.38014 -1.00558,-3.42122 -2.19399,-6.71572c-4.47939,-12.29104 -15.44932,-22.5547 -25.68792,-23.94853l-5.1193,-0.76027l1.00558,3.67464c2.65107,9.50338 7.4047,16.34582 15.3579,21.92114c5.6678,4.05478 16.63773,7.85613 16.63773,5.82874zm-718.80465,-10.13694c6.58196,-3.29451 11.24418,-8.86982 11.24418,-13.43145c0,-2.28081 -0.36566,-2.53424 -2.92531,-1.77396c-9.78152,2.91437 -17.18622,9.88352 -17.18622,15.96568c0,3.16779 1.37124,3.04108 8.86736,-0.76027zm-36.29218,0c6.49054,-4.68834 0.63991,-15.83897 -8.31886,-15.83897c-5.30213,0 -9.05019,3.67464 -9.05019,8.86982c0,5.57532 3.65664,8.86982 9.78152,8.86982c2.74248,0 6.12488,-0.88698 7.58753,-1.90068zm883.07934,0.12671c10.42143,-2.66095 17.27764,-6.71572 21.75703,-12.9246c2.46823,-3.29451 3.83948,-6.33559 3.65664,-7.72942c-0.36566,-2.91437 -8.86736,-10.01023 -15.3579,-12.79789c-8.04462,-3.42122 -28.06474,-2.78766 -39.40033,1.39383c-13.25533,4.81505 -23.12827,12.41775 -25.96217,19.76704l-1.27983,3.67464l4.75364,2.53424c6.67337,3.67464 10.42143,5.06847 16.18065,6.4623c7.77037,1.77396 27.97332,1.52054 35.65227,-0.38014zm-1030.35065,-8.74311c3.56523,-10.01023 0.73133,-11.40406 -12.43259,-6.4623c-2.65107,1.01369 -4.84505,2.28081 -4.84505,2.78766c0,1.64725 4.84505,7.60271 7.31329,8.99654c1.27983,0.76027 3.56523,1.14041 5.02788,1.01369c2.2854,-0.25342 3.10815,-1.26712 4.93647,-6.33559zm178.07853,-8.99654c6.21629,-4.05478 12.61542,-13.05131 15.54073,-21.79443c2.46823,-7.60271 3.83948,-21.16087 2.2854,-22.5547c-1.46266,-1.26712 -13.621,1.52054 -20.20295,4.56162c-6.94762,3.04108 -13.16392,10.39037 -14.80941,17.10609c-0.5485,2.40752 -0.82274,7.85613 -0.63991,12.16433c0.36566,6.33559 0.82274,8.10955 2.92531,10.64379c3.29098,3.92806 8.68453,3.80135 14.90082,-0.12671zm928.8788,-4.05478c3.01673,-2.91437 2.74248,-10.51708 -0.45708,-15.83897c-4.47939,-7.34928 -11.24418,-9.37667 -16.45489,-4.94176c-3.83948,3.16779 -4.66222,7.60271 -2.37682,12.9246c3.56523,8.36298 14.26091,12.79789 19.28879,7.85613zm-889.02139,-1.14041c12.24975,-4.43491 22.67119,-14.69857 24.86517,-24.58208l0.63991,-3.04108l-6.03346,0.88698c-8.04462,1.14041 -14.90082,4.81505 -19.74587,10.51708c-3.56523,4.3082 -9.14161,14.69857 -9.14161,17.10609c0,1.52054 3.65664,1.26712 9.41586,-0.88698zm748.51487,-4.3082c1.00558,-1.39383 -0.91416,-8.36298 -3.74806,-13.05131c-6.58196,-10.89721 -22.48836,-16.59924 -33.82395,-12.03762c-2.74248,1.14041 -5.85063,2.78766 -6.76479,3.80135c-1.64549,1.64725 -1.55407,2.02739 1.73691,7.09586c5.39355,8.23627 13.621,13.30474 24.40809,15.20541c5.94205,1.01369 17.18622,0.38014 18.1918,-1.01369zm-927.50756,-3.80135c4.20514,-2.53424 9.59869,-10.51708 9.59869,-14.19172c0,-1.52054 -1.55407,-3.80135 -4.29656,-6.33559c-12.88967,-11.27735 -28.88748,-9.63009 -32.17846,3.29451c-1.09699,4.43491 -1.00558,5.70203 0.18283,9.75681c3.01673,10.01023 16.18065,13.68487 26.6935,7.47599zm88.6736,-11.65748c4.02231,-0.76027 7.67895,-1.77396 8.04462,-2.28081c1.46266,-2.02739 -0.63991,-8.36298 -4.5708,-13.68487c-8.04462,-10.7705 -22.67119,-17.61294 -40.49732,-19.00677c-9.41586,-0.63356 -25.5965,0.88698 -31.62996,2.91437c-2.74248,1.01369 -2.92531,5.32189 -0.45708,12.54447c4.02231,12.16433 12.70684,18.75334 27.97332,21.03415c7.67895,1.01369 30.99005,0.25342 41.13724,-1.52054zm739.37326,0.63356c-0.82274,-3.04108 -18.83171,-24.96222 -26.60208,-32.43821c-3.83948,-3.54793 -11.06135,-9.50338 -16.18065,-13.05131c-9.14161,-6.4623 -27.51624,-15.58555 -28.52182,-14.19172c-1.09699,1.52054 4.29656,11.91091 10.42143,20.02046c12.524,16.85267 31.2643,31.04438 50.55309,38.52038c9.50727,3.67464 11.06135,3.80135 10.33002,1.14041zm213.91363,-15.45884l4.38797,-2.66095l-0.27425,-9.88352l-0.27425,-9.88352l-5.02788,-3.67464c-3.65664,-2.78766 -6.30771,-3.80135 -9.78152,-3.80135c-4.20514,-0.12671 -5.21072,0.38014 -7.67895,3.92806c-5.30213,7.34928 -4.47939,21.92114 1.73691,27.36974c3.29098,2.91437 10.96993,2.28081 16.91198,-1.39383zm-72.31012,1.01369c9.59869,-1.90068 17.73472,-6.20888 21.75703,-11.27735l3.47381,-4.56162l-1.27983,-8.23627c-2.19399,-14.31843 -9.14161,-24.45537 -20.11154,-29.14371c-18.00897,-7.72942 -38.39475,3.67464 -42.41706,23.56839c-4.20514,20.78073 13.80383,34.59231 38.57759,29.65056zm-836.45714,-6.84244c7.49612,-2.28081 11.15276,-4.81505 15.63215,-10.64379c4.02231,-5.44861 4.20514,-6.96915 0.91416,-9.12325c-12.79825,-8.10955 -26.87633,-6.96915 -36.47502,3.16779c-5.30213,5.57532 -7.86178,16.21911 -4.20514,17.48622c3.56523,1.26712 18.37463,0.76027 24.13385,-0.88698zm755.82816,-2.66095c2.2854,-1.01369 5.1193,-3.16779 6.39913,-4.56162l2.2854,-2.40752l-3.65664,-4.56162c-7.77037,-9.63009 -20.20295,-15.71226 -31.99563,-15.71226c-8.04462,0 -12.61542,1.39383 -15.17507,4.56162c-2.10257,2.53424 -0.91416,7.85613 3.01673,13.30474c8.04462,11.02392 26.6935,15.58555 39.12608,9.37667zm-665.05199,-6.4623c11.24418,-3.92806 22.67119,-10.7705 32.45271,-19.3869c8.31886,-7.22257 24.68234,-26.10263 24.68234,-28.38344c0,-2.02739 -10.51285,-0.12671 -19.65446,3.54793c-10.51285,4.18149 -26.41925,15.0787 -35.37802,24.45537c-8.86736,9.24996 -19.01454,21.541 -19.01454,23.18825c0,1.64725 6.30771,0.38014 16.91198,-3.42122zm-242.06978,0.12671c4.02231,-3.29451 6.67337,-8.6164 6.67337,-13.17802c0,-6.33559 -8.5017,-10.7705 -14.99224,-7.72942c-7.22187,3.29451 -10.2386,14.57185 -5.57638,20.90744c3.01673,4.3082 8.5017,4.3082 13.89524,0zm115.91559,-27.24303c5.85063,-3.92806 8.68453,-10.13694 8.68453,-19.00677c-0.09142,-19.64032 -12.70684,-32.94506 -31.53855,-32.94506c-17.27764,0 -30.44156,11.53077 -32.08704,28.0033c-0.91416,8.99654 1.27983,14.57185 7.13045,18.11978c14.80941,9.12325 38.669,11.91091 47.81061,5.82874zm81.36031,-0.50685c6.21629,-3.92806 10.7871,-9.37667 12.43259,-15.0787c1.46266,-4.94176 0.09142,-6.4623 -8.04462,-8.48969c-6.94762,-1.90068 -16.54631,-1.14041 -24.95659,1.90068c-6.58196,2.40752 -20.11154,10.51708 -20.11154,12.16433c0,1.77396 4.84505,7.34928 8.22745,9.63009c5.30213,3.42122 8.22745,4.05478 17.82614,3.67464c7.67895,-0.25342 10.05577,-0.88698 14.62657,-3.80135zm823.84172,2.78766c1.64549,-3.04108 2.01115,-7.60271 1.00558,-15.0787l-0.91416,-7.47599l-5.30213,0c-5.1193,0 -5.30213,0.12671 -6.30771,3.92806c-1.55407,6.08217 -1.18841,10.51708 0.91416,14.31843c3.01673,5.32189 8.77594,7.60271 10.60427,4.3082zm-990.67607,-6.33559c4.66222,-3.29451 8.22745,-9.88352 8.22745,-15.0787c0,-4.3082 -3.93089,-11.02392 -7.9532,-13.30474c-3.83948,-2.28081 -12.34117,-2.28081 -16.08923,0c-7.03904,4.18149 -9.6901,13.43145 -5.94205,21.03415c4.75364,9.75681 13.89524,12.79789 21.75703,7.34928zm822.19623,-8.6164c1.27983,-0.63356 2.37682,-1.64725 2.37682,-2.28081c0,-0.63356 -2.46823,-5.32189 -5.48496,-10.51708c-9.14161,-15.45884 -19.74587,-47.64363 -23.76818,-72.099c-0.63991,-3.80135 -1.64549,-8.23627 -2.2854,-9.63009c-0.73133,-1.52054 -5.30213,-6.20888 -10.33002,-10.39037c-28.88748,-24.58208 -52.56425,-60.56823 -59.51187,-90.47221c-0.63991,-2.66095 -2.65107,-6.4623 -4.47939,-8.6164c-1.82832,-2.1541 -21.48278,-16.47253 -43.60547,-31.93137c-41.41148,-29.017 -44.15397,-31.29781 -79.98907,-65.76341c-18.7403,-17.86636 -34.55528,-27.49645 -49.54752,-29.65056l-6.12488,-0.88698l0.45708,6.71572c1.37124,18.11978 7.77037,40.16763 17.27764,59.42782c8.86736,18.11978 13.89524,26.10263 44.3368,71.08531c7.31329,10.7705 18.37463,27.74988 24.68234,37.76011c6.30771,10.13694 17.18622,27.49645 24.13385,38.64709c14.62657,23.31497 40.77157,60.06138 50.82734,71.33873c25.87075,28.89028 50.09601,43.082 80.26332,47.13678c11.33559,1.52054 38.02909,1.64725 40.77157,0.12671zm58.41488,-1.90068c14.99224,-4.43491 24.31668,-17.73965 27.69907,-39.7875c4.66222,-30.66425 -3.56523,-58.1607 -20.84287,-69.56476c-10.2386,-6.84244 -25.32225,-8.36298 -39.58316,-4.05478c-10.60427,3.29451 -45.52521,16.47253 -46.34795,17.61294c-0.91416,1.14041 5.30213,43.082 7.86178,52.33196c2.92531,10.89721 5.75921,16.85267 10.96993,23.56839c12.15834,15.58555 41.77715,25.34235 60.2432,19.89375zm142.7005,-8.48969c0.45708,-2.40752 0.5485,-6.08217 0.18283,-7.98284c-1.55407,-8.36298 -11.15276,-15.33212 -13.98666,-10.13694c-1.64549,3.29451 -1.46266,11.53077 0.36566,15.96568c1.55407,3.54793 4.20514,5.57532 8.5017,6.58901c3.56523,0.76027 4.02231,0.38014 4.93647,-4.43491zm-782.43024,-14.95199c42.59989,-6.58901 67.00799,-27.11632 124.78295,-104.53721c10.7871,-14.44514 30.53297,-40.42106 43.87972,-57.65386c29.80164,-38.52038 55.1239,-74.12639 63.35134,-89.3318c9.6901,-17.73965 14.62657,-33.3252 16.72914,-52.45867l0.5485,-5.57532l-8.13603,0.88698c-8.41028,0.88698 -19.74587,4.68834 -28.4304,9.50338c-7.13045,3.92806 -12.43259,7.85613 -34.00678,24.83551c-39.40033,31.04438 -64.72259,48.02376 -87.75944,58.92097c-26.60208,12.54447 -29.52739,15.45884 -37.20635,37.50669c-10.05577,29.017 -18.83171,40.42106 -54.11832,69.56476l-16.82056,13.9383l-2.01115,10.13694c-4.66222,23.82181 -14.71799,49.29088 -28.24757,72.099c-4.20514,7.09586 -4.93647,8.99654 -3.83948,9.88352c3.65664,2.91437 37.75484,4.3082 51.28442,2.28081zm720.72438,-2.66095c8.31886,-6.4623 11.70126,-21.66771 7.58753,-34.4656c-5.94205,-18.62663 -29.89306,-21.79443 -36.29218,-4.68834c-5.1193,13.68487 -0.09142,34.21218 9.96435,40.80119c5.02788,3.16779 13.52958,2.53424 18.7403,-1.64725zm-928.23889,-3.92806c1.73691,-5.95545 2.55965,-13.05131 1.82832,-16.0924c-0.45708,-2.28081 -1.27983,-2.66095 -5.94205,-2.66095l-5.39355,0l-1.82832,6.96915c-3.47381,12.67118 -2.37682,15.71226 5.6678,15.83897c4.11372,0 4.47939,-0.25342 5.6678,-4.05478zm137.39837,-3.04108c18.37463,-5.06847 30.44156,-18.37321 36.20077,-39.7875c2.74248,-10.26365 10.96993,-49.29088 10.51285,-49.92444c-0.45708,-0.63356 -21.66561,-10.89721 -35.56086,-17.2328c-5.75921,-2.66095 -14.07808,-5.57532 -18.46605,-6.33559c-23.76818,-4.43491 -45.34238,9.63009 -54.0269,35.09916c-2.74248,8.23627 -2.92531,9.37667 -2.8339,23.18825c0,12.03762 0.36566,15.83897 2.10257,21.92114c5.1193,17.86636 15.54073,28.63686 32.54412,33.3252c7.86178,2.1541 21.29995,2.1541 29.52739,-0.25342zm821.83057,-3.80135c2.37682,-2.28081 4.75364,-8.23627 4.75364,-11.91091c0,-3.80135 -4.11372,-5.70203 -8.68453,-3.80135c-4.02231,1.64725 -10.51285,7.22257 -10.51285,9.12325c0,0.63356 1.18841,2.91437 2.65107,4.94176c3.10815,4.18149 8.31886,5.06847 11.79267,1.64725zm-992.13873,-15.20541c5.1193,-3.29451 7.49612,-13.43145 4.47939,-19.26019c-2.65107,-5.32189 -9.96435,-2.40752 -12.61542,5.32189c-2.01115,5.82874 -1.82832,10.39037 0.36566,13.43145c2.19399,3.04108 3.74806,3.16779 7.77037,0.50685zm73.22428,-13.05131c11.88409,-7.47599 15.3579,-32.43821 6.21629,-44.85597c-3.65664,-5.19518 -7.13045,-7.34928 -12.70684,-8.10955c-18.83171,-2.66095 -29.43598,25.34235 -17.00339,45.36282c5.85063,9.50338 15.44932,12.67118 23.49393,7.60271zm-39.49175,-15.45884c2.74248,-2.91437 2.92531,-4.81505 1.09699,-9.88352c-1.64549,-4.3082 -4.93647,-6.4623 -9.96435,-6.4623c-6.58196,0 -8.13603,5.44861 -3.65664,12.67118c4.02231,6.71572 8.5017,7.98284 12.524,3.67464zm952.55557,-25.97591c0.82274,-3.04108 0.63991,-15.71226 -0.27425,-15.71226c-2.46823,0 -6.39913,3.16779 -7.31329,5.82874c-1.37124,4.18149 -1.27983,10.26365 0.18283,11.02392c2.55965,1.52054 6.85621,0.88698 7.4047,-1.14041zm-31.44713,-1.14041c4.20514,-3.04108 4.29656,-6.20888 0.36566,-14.19172l-3.47381,-6.96915l-5.57638,0.50685c-9.6901,1.14041 -14.90082,7.09586 -12.524,14.31843c2.2854,6.96915 15.08365,10.7705 21.20853,6.33559zm-115.18426,-9.50338c22.85402,-2.91437 41.68573,-9.12325 47.99344,-15.71226c16.36348,-17.35951 16.18065,-64.49629 -0.36566,-86.79757c-10.51285,-14.19172 -21.75703,-14.57185 -79.62341,-3.29451c-46.25654,9.12325 -56.67797,12.67118 -67.37365,22.5547c-4.66222,4.18149 -6.67337,9.12325 -6.67337,16.0924c0,10.7705 7.9532,26.98961 21.11711,43.20871c13.43816,16.72595 20.20295,21.66771 32.08704,23.82181c8.5017,1.52054 40.68016,1.64725 52.83849,0.12671zm-601.06073,-29.65056c8.77594,-3.42122 15.81498,-8.6164 24.86517,-18.2465c17.18622,-18.49992 24.04243,-30.28411 24.04243,-41.30804c0,-17.35951 -13.25533,-26.10263 -59.87753,-39.28065c-11.06135,-3.16779 -27.69907,-8.10955 -37.02351,-10.89721c-13.98666,-4.3082 -19.19738,-5.32189 -30.16731,-5.95545c-12.15834,-0.63356 -13.71241,-0.38014 -18.64888,2.1541c-6.76479,3.54793 -11.42701,9.37667 -15.08365,18.88005c-5.75921,15.0787 -8.5017,39.7875 -5.75921,52.96552c2.92531,13.68487 12.524,25.59578 25.5965,31.29781c7.4047,3.16779 28.70465,8.6164 45.43379,11.53077c13.52958,2.28081 39.2175,1.64725 46.6222,-1.14041zm-198.73856,-2.1541c2.37682,-3.29451 1.64549,-9.37667 -1.55407,-13.43145c-2.8339,-3.54793 -5.48496,-3.67464 -6.76479,-0.50685c-2.10257,5.57532 -0.5485,13.30474 3.01673,15.33212c2.92531,1.64725 3.19956,1.52054 5.30213,-1.39383zm43.51405,0.76027c3.01673,-1.77396 3.19956,-2.1541 2.65107,-6.08217c-0.36566,-2.1541 -2.01115,-5.95545 -3.74806,-8.36298c-2.55965,-3.67464 -3.83948,-4.43491 -8.13603,-4.94176c-8.5017,-1.01369 -14.26091,4.43491 -14.26091,13.17802c0,2.40752 0.09142,4.3082 0.27425,4.3082c0.09142,0 1.82832,0.88698 3.83948,1.90068c4.84505,2.40752 15.17507,2.40752 19.38021,0zm859.03691,-13.81158c4.84505,-2.78766 7.22187,-7.98284 6.76479,-14.82528c-0.73133,-10.13694 -6.30771,-17.2328 -15.81498,-20.14717c-8.22745,-2.53424 -18.64888,1.77396 -19.47163,8.10955c-1.37124,9.24996 4.02231,21.66771 11.15276,26.22934c4.47939,2.78766 13.0725,3.16779 17.36906,0.63356zm31.17288,-16.97938c-0.73133,-5.57532 -7.67895,-15.45884 -10.96993,-15.45884c-4.66222,0 -2.2854,11.27735 4.75364,21.66771l4.38797,6.4623l1.18841,-4.18149c0.73133,-2.40752 1.00558,-5.82874 0.63991,-8.48969zm-875.49181,-23.31497c5.57638,-3.67464 8.86736,-10.13694 8.86736,-17.61294c0,-9.88352 -5.21072,-15.0787 -15.26649,-15.0787c-10.51285,0 -19.01454,8.36298 -19.01454,18.75334c0,14.82528 12.98108,21.92114 25.41367,13.9383zm-46.34795,-9.75681c6.94762,-6.20888 9.96435,-12.41775 9.96435,-20.52731c0,-4.05478 -0.18283,-4.05478 -6.03346,-1.14041c-3.01673,1.64725 -6.58196,8.48969 -8.13603,15.45884c-2.37682,11.27735 -2.01115,11.78419 4.20514,6.20888zm690.1,-9.63009c4.75364,-1.14041 16.08923,-3.92806 25.13942,-6.4623c15.26649,-4.18149 18.7403,-4.56162 46.6222,-6.20888c37.66343,-2.28081 44.8853,-3.80135 56.49514,-12.29104c13.98666,-10.39037 21.29995,-33.45191 18.10038,-57.0203c-2.19399,-15.71226 -11.42701,-36.11286 -20.56862,-45.10939c-6.21629,-6.20888 -10.87851,-8.10955 -19.74587,-8.10955c-8.31886,-0.12671 -14.80941,1.77396 -35.65227,10.39037c-15.54073,6.33559 -30.99005,10.7705 -46.16512,13.30474c-23.58535,3.80135 -32.63554,2.53424 -83.64571,-11.40406c-53.11274,-14.44514 -56.8608,-15.20541 -83.18863,-15.20541c-20.20295,0 -23.3111,0.25342 -31.99563,2.91437c-5.30213,1.64725 -12.79825,4.81505 -16.72914,6.84244c-5.6678,3.16779 -6.85621,4.18149 -6.03346,5.70203c1.64549,2.66095 11.24418,8.6164 25.32225,15.58555c23.67677,11.78419 28.33899,15.45884 58.96337,45.86966c42.23423,41.9416 59.6947,55.62647 78.34358,61.07508c7.9532,2.40752 24.13385,2.40752 34.73811,0.12671zm177.80428,-2.78766c9.78152,-6.96915 10.96993,-17.86636 2.55965,-22.80812c-9.14161,-5.19518 -20.02012,2.28081 -22.21411,15.20541c-0.5485,3.80135 -0.36566,5.32189 1.18841,7.98284c1.73691,3.16779 2.19399,3.29451 8.31886,2.78766c4.02231,-0.38014 7.86178,-1.64725 10.14719,-3.16779zm38.85183,-11.91091c0,-4.05478 -0.5485,-5.95545 -2.74248,-8.86982c-3.56523,-5.06847 -7.58753,-4.81505 -8.04462,0.38014c-0.36566,4.56162 1.09699,8.23627 4.66222,11.15064c4.66222,4.05478 6.12488,3.42122 6.12488,-2.66095zm-640.18682,-4.43491c11.97551,-3.42122 28.70465,-12.03762 51.65009,-26.60947c14.62657,-9.24996 22.85402,-15.83897 44.15397,-35.35258c31.35572,-28.89028 45.89087,-38.01353 66.55091,-41.81489c4.38797,-0.76027 4.38797,-0.88698 2.8339,-3.29451c-2.8339,-4.3082 -15.9064,-12.41775 -25.41367,-15.71226c-5.1193,-1.77396 -14.90082,-3.92806 -22.12269,-4.68834c-20.66003,-2.40752 -39.94883,-0.25342 -100.92335,11.27735c-15.17507,2.78766 -21.29995,3.29451 -40.68016,3.42122c-21.48278,0 -23.49393,-0.12671 -34.37245,-3.42122c-11.33559,-3.29451 -25.23084,-9.24996 -52.01575,-22.30127c-21.29995,-10.26365 -30.80722,-10.7705 -43.51405,-2.02739c-11.70126,7.98284 -22.30552,27.36974 -25.04801,45.86966c-1.73691,11.65748 -0.82274,28.76357 2.01115,37.37997c3.10815,9.37667 9.50727,18.75334 16.08923,23.56839c10.05577,7.47599 20.84287,10.13694 50.91876,12.9246c24.68234,2.28081 31.08147,3.80135 54.39257,12.9246c7.31329,2.78766 16.72914,6.20888 21.0257,7.47599c9.87294,2.78766 25.23084,3.04108 34.46386,0.38014zm-195.90466,-22.30127c1.09699,-12.79789 0.82274,-14.57185 -2.37682,-17.2328c-5.1193,-4.43491 -11.15276,-5.95545 -16.54631,-4.18149c-2.65107,0.88698 -5.75921,2.66095 -6.94762,4.05478l-2.2854,2.53424l1.73691,4.56162c3.83948,9.88352 12.43259,16.59924 21.5742,16.72595l4.20514,0.12671l0.63991,-6.58901zm-51.65009,-10.01023c3.29098,-1.64725 5.57638,-6.71572 5.57638,-12.54447c0,-3.16779 -0.36566,-3.80135 -2.10257,-3.80135c-1.09699,0 -3.01673,0.88698 -4.20514,2.02739c-2.01115,2.02739 -5.48496,10.89721 -5.57638,14.19172c0,1.90068 2.46823,2.02739 6.30771,0.12671zm865.34462,-21.92114c6.12488,-3.67464 8.59311,-14.69857 5.21072,-23.44168c-2.19399,-5.70203 -6.76479,-8.99654 -12.34117,-8.99654c-16.18065,0 -18.46605,25.08893 -2.92531,32.69164c3.83948,1.90068 6.39913,1.77396 10.05577,-0.25342zm-832.06917,-39.28065c1.64549,-0.88698 4.29656,-3.80135 6.03346,-6.4623c2.65107,-4.18149 3.01673,-5.44861 2.55965,-9.88352c-1.27983,-13.30474 -14.16949,-19.76704 -22.48836,-11.27735c-7.31329,7.34928 -7.03904,23.94853 0.36566,28.25673c2.92531,1.52054 10.33002,1.26712 13.52958,-0.63356zm551.69605,-56.13332c39.58316,-0.25342 71.30454,-1.01369 71.0303,-1.64725c-0.91416,-2.02739 -28.24757,-9.88352 -49.36468,-14.19172c-5.21072,-1.01369 -16.72914,-1.64725 -31.53855,-1.64725c-20.02012,0.12671 -24.77376,0.50685 -33.91537,2.91437c-12.79825,3.29451 -20.29437,6.58901 -28.70465,12.29104c-5.94205,4.05478 -6.12488,4.3082 -2.74248,3.67464c2.01115,-0.38014 35.8351,-1.01369 75.23543,-1.39383zm156.96141,-1.64725c32.17846,-5.06847 53.84407,-22.80812 59.51187,-49.16417c2.10257,-9.50338 1.91974,-16.34582 -0.63991,-20.14717c-5.48496,-8.10955 -17.18622,-11.78419 -38.12051,-11.78419c-17.46047,0 -65.54533,5.32189 -74.86977,8.23627c-11.88409,3.67464 -18.46605,11.27735 -25.87075,29.52384c-6.03346,14.82528 -12.34117,27.49645 -14.44374,28.89028c-1.18841,0.88698 -1.73691,1.77396 -1.27983,2.28081c2.8339,2.40752 39.85741,11.02392 54.11832,12.54447c9.41586,1.01369 33.91537,0.76027 41.59432,-0.38014zm-362.46476,-1.64725c0,-8.99654 -30.7158,-22.80812 -57.9578,-26.22934c-14.44374,-1.77396 -41.22865,-1.52054 -52.92991,0.63356c-16.72914,3.04108 -35.37802,8.74311 -35.37802,10.7705c0,0.50685 9.59869,1.26712 21.29995,1.77396c72.12729,2.91437 95.34697,5.32189 113.53877,12.03762c7.9532,2.91437 11.42701,3.16779 11.42701,1.01369zm138.49536,-9.37667c43.97114,-20.90744 45.15954,-21.03415 76.78951,-13.68487c16.63773,3.80135 21.75703,4.56162 30.16731,4.18149c9.23302,-0.38014 10.60427,-0.76027 16.18065,-4.56162c9.6901,-6.58901 18.7403,-20.4006 27.05916,-41.05461c1.64549,-4.05478 7.03904,-20.02046 12.15834,-35.4793c10.7871,-33.07177 12.88967,-38.52038 20.4772,-52.96552c6.85621,-12.79789 9.59869,-19.00677 9.59869,-21.41429c0,-1.39383 -2.55965,-1.64725 -14.80941,-1.01369c-28.61323,1.39383 -55.94664,13.05131 -95.34697,40.29434c-16.45489,11.53077 -44.70246,33.3252 -56.67797,43.96899c-31.62996,28.0033 -51.92433,59.80796 -51.92433,81.34896c0,3.92806 0.27425,7.85613 0.63991,8.6164c1.09699,2.53424 7.22187,0.50685 25.68792,-8.23627zm-121.12631,2.78766c0.91416,-1.52054 0.63991,-4.18149 -1.27983,-13.43145c-4.66222,-22.5547 -11.88409,-38.26696 -26.78491,-58.28742c-14.44374,-19.3869 -31.72138,-36.49299 -64.08267,-63.35589c-45.43379,-37.76011 -73.86419,-53.21895 -104.21433,-57.0203c-6.58196,-0.76027 -12.34117,-1.26712 -12.88967,-1.01369c-0.5485,0.25342 0.82274,3.67464 3.19956,7.47599c5.1193,8.6164 13.43816,31.93137 19.19738,53.8525c9.41586,35.98614 14.44374,53.72579 18.46605,64.36958c14.44374,39.15394 28.61323,47.89705 64.63117,39.66079c31.72138,-7.34928 35.46944,-6.4623 73.13286,15.45884c16.54631,9.63009 25.23084,13.9383 27.97332,14.06501c0.82274,0.12671 2.01115,-0.76027 2.65107,-1.77396zm-180.63818,-16.47253c11.42701,-1.64725 18.83171,-3.16779 26.32783,-5.19518l2.46823,-0.63356l-3.65664,-4.56162c-2.46823,-3.16779 -5.21072,-9.24996 -9.23302,-20.52731c-7.67895,-21.79443 -11.06135,-28.63686 -16.63773,-33.70533c-12.70684,-11.53077 -45.70804,-18.88005 -85.10837,-19.00677c-23.58535,0 -29.98447,1.14041 -35.37802,6.20888l-3.01673,2.78766l0.09142,10.7705c0,8.99654 0.36566,11.78419 2.65107,18.2465c7.86178,23.06154 30.62439,39.28065 63.53418,45.61624c11.97551,2.28081 42.50848,2.28081 57.9578,0zm295.91385,-49.5443c21.66561,-24.07524 49.54752,-50.17786 79.16633,-73.99968l12.88967,-10.39037l3.83948,-15.45884c10.87851,-43.96899 22.21411,-77.54761 38.57759,-114.16731c17.09481,-38.39367 19.47163,-47.01007 18.83171,-70.07161c-0.63991,-24.20195 -3.65664,-28.89028 -17.55189,-27.87659c-12.06692,0.76027 -23.03685,11.15064 -37.66343,35.35258c-9.05019,15.20541 -16.91198,30.66425 -34.82953,68.93121c-8.5017,18.11978 -23.3111,48.15047 -32.90979,66.7771c-40.22308,77.54761 -52.38141,107.5783 -61.43161,150.91372c-4.11372,19.3869 -4.75364,26.10263 -3.10815,29.65056c1.37124,2.78766 1.46266,2.78766 11.97551,-12.03762c5.94205,-8.23627 15.9064,-20.65402 22.21411,-27.62317zm-99.64353,38.64709c1.82832,-4.81505 -1.37124,-35.09916 -6.03346,-57.40043c-6.58196,-31.42452 -14.44374,-52.96552 -41.59432,-113.53375c-8.86736,-19.89375 -22.48836,-51.19156 -30.16731,-69.69148c-26.6935,-63.60931 -43.42264,-99.21532 -52.47283,-111.25294c-8.31886,-11.02392 -15.72357,-15.83897 -25.04801,-15.83897c-3.83948,0 -7.86178,0.38014 -8.95878,0.88698c-2.65107,1.14041 -6.67337,12.03762 -7.67895,20.78073c-1.18841,9.50338 0.09142,23.82181 3.19956,36.74641c1.37124,5.32189 7.22187,23.18825 13.16392,39.53407c16.82056,46.62993 25.23084,76.28049 31.62996,111.50636c2.92531,15.96568 3.3824,17.35951 6.67337,21.541c2.01115,2.40752 14.62657,15.45884 28.15615,28.76357c47.44495,47.13678 67.46507,71.97229 82.64014,103.01667c2.01115,4.18149 4.11372,7.60271 4.5708,7.60271c0.45708,0 1.27983,-1.14041 1.91974,-2.66095zm432.85514,-5.70203c7.58753,-5.06847 14.07808,-20.78073 14.07808,-34.33889l0,-6.96915l-2.92531,0.76027c-7.13045,1.90068 -15.99781,9.50338 -22.57977,19.26019c-3.56523,5.32189 -6.49054,10.64379 -6.49054,11.91091c0,3.16779 3.47381,8.86982 6.76479,10.89721c3.19956,2.02739 6.49054,1.52054 11.15276,-1.52054zm-378.0055,-17.2328c1.64549,-4.43491 9.05019,-23.31497 16.63773,-42.19502c29.34456,-72.98598 38.30334,-106.94474 40.40591,-153.32125c0.27425,-6.20888 0.73133,-14.95199 1.00558,-19.26019c0.18283,-4.43491 0.09142,-7.98284 -0.27425,-7.98284c-0.36566,0 -2.2854,3.80135 -4.11372,8.6164c-1.82832,4.68834 -8.5017,20.78073 -14.90082,35.73272c-30.53297,71.97229 -43.42264,119.61591 -43.42264,160.92395c0,12.67118 0.73133,25.34235 1.46266,25.34235c0.18283,0 1.64549,-3.54793 3.19956,-7.85613zm-37.38918,-17.35951c0.91416,-14.95199 0.82274,-20.14717 -0.45708,-34.4656c-2.74248,-31.42452 -9.32444,-56.89359 -29.89306,-117.08168c-13.621,-39.66079 -18.28322,-54.35935 -18.28322,-57.14701c0,-1.01369 -0.36566,-1.77396 -0.82274,-1.77396c-1.18841,0 -2.8339,20.78073 -2.8339,36.23957c0.09142,24.7088 3.56523,49.92444 10.96993,77.80103c3.83948,14.44514 6.58196,23.18825 21.29995,67.7908c4.75364,14.69857 9.96435,31.67794 11.51843,37.88682c1.64549,6.33559 3.3824,12.16433 3.93089,13.17802c2.01115,3.29451 3.47381,-4.3082 4.5708,-22.42798zm-367.85831,-0.25342c2.46823,-1.26712 2.65107,-5.44861 0.63991,-14.69857c-2.01115,-9.37667 -6.94762,-15.71226 -18.10038,-23.31497l-9.32444,-6.33559l-0.27425,5.82874c-0.82274,17.73965 7.03904,36.74641 16.54631,39.91421c3.01673,1.01369 6.76479,0.50685 10.51285,-1.39383zm635.25035,-8.10955c7.86178,-2.91437 11.79267,-3.42122 35.01236,-4.43491c47.35353,-2.28081 56.95222,-5.57532 73.68136,-25.21564c7.67895,-8.86982 14.16949,-20.4006 18.00897,-31.67794c3.65664,-10.64379 4.47939,-24.96222 2.01115,-33.95876c-2.2854,-8.23627 -6.85621,-14.69857 -13.0725,-18.49992c-4.38797,-2.78766 -7.31329,-3.54793 -15.81498,-4.18149c-9.59869,-0.76027 -11.33559,-0.50685 -21.84844,3.04108c-45.89087,15.45884 -73.86419,45.48953 -88.30793,94.6537c-4.5708,15.33212 -4.38797,23.31497 0.27425,23.44168c0.63991,0 5.1193,-1.39383 10.05577,-3.16779zm145.44299,-17.48622c2.92531,-4.3082 4.75364,-11.40406 4.75364,-18.49992c0,-7.98284 -1.55407,-10.26365 -6.94762,-10.26365c-3.56523,0 -4.20514,0.38014 -5.02788,3.54793c-1.46266,5.19518 -0.63991,20.65402 1.27983,24.7088c1.91974,4.18149 3.3824,4.3082 5.94205,0.50685zm-634.61044,-10.89721c-1.18841,-18.75334 -4.66222,-31.80466 -12.79825,-48.78403c-5.39355,-11.15064 -17.91755,-29.14371 -26.51066,-38.01353c-28.33899,-29.14371 -65.08825,-41.56146 -83.91996,-28.51015c-18.46605,12.9246 -19.01454,44.47583 -1.18841,73.11269c11.60984,18.62663 21.39136,26.98961 37.93767,32.43821c5.30213,1.77396 22.39694,5.82874 38.12051,8.99654c15.63215,3.16779 31.08147,6.84244 34.28103,8.10955c7.4047,3.16779 8.86736,3.42122 12.06692,2.78766l2.65107,-0.50685l-0.63991,-9.63009zm661.94384,1.64725c3.19956,-6.84244 1.00558,-20.78073 -3.3824,-20.78073c-3.19956,0 -4.93647,5.44861 -4.20514,14.06501c0.73133,10.01023 1.82832,13.05131 4.20514,11.27735c1.00558,-0.76027 2.46823,-2.78766 3.3824,-4.56162zm-811.04347,-29.017c0.91416,-2.78766 1.91974,-8.36298 2.10257,-12.41775c0.36566,-6.33559 0.09142,-7.72942 -1.73691,-10.51708c-2.8339,-4.18149 -7.4047,-4.18149 -9.87294,0.12671c-3.83948,6.96915 -3.19956,17.48622 1.73691,24.7088c3.3824,5.06847 5.48496,4.56162 7.77037,-1.90068zm785.0813,-5.82874c3.3824,-3.54793 4.93647,-11.15064 3.29098,-15.83897c-1.46266,-4.18149 -5.39355,-7.60271 -7.49612,-6.4623c-1.27983,0.63356 -1.55407,2.66095 -1.55407,10.89721c0,14.69857 1.00558,16.72595 5.75921,11.40406zm-813.87737,-1.77396c3.10815,-4.68834 3.74806,-16.97938 1.00558,-20.78073c-2.19399,-3.04108 -4.02231,-2.40752 -5.48496,1.90068c-1.82832,5.70203 -0.91416,22.04785 1.27983,22.04785c0.5485,0 2.01115,-1.39383 3.19956,-3.16779zm843.22193,-4.81505c0.73133,-1.52054 0.73133,-2.78766 0,-4.3082c-1.09699,-2.40752 -5.30213,-4.3082 -7.31329,-3.29451c-1.91974,1.01369 -1.55407,5.82874 0.63991,9.75681c1.73691,3.04108 2.10257,3.29451 3.83948,1.64725c1.09699,-0.88698 2.37682,-2.66095 2.8339,-3.80135zm-241.88695,-21.92114c66.18524,-36.23957 106.59115,-75.52022 119.02374,-115.81456c1.73691,-5.44861 2.19399,-9.37667 2.19399,-17.73965c0.09142,-9.63009 -0.18283,-11.53077 -2.65107,-17.61294c-5.1193,-12.9246 -15.44932,-22.17456 -28.9789,-25.97591c-19.01454,-5.44861 -34.37245,0.50685 -46.98787,17.86636c-10.7871,15.0787 -26.96774,51.6984 -43.23981,98.20162c-13.89524,39.66079 -20.02012,63.22918 -17.46047,67.53738c0.63991,1.01369 1.46266,1.90068 1.91974,1.90068c0.45708,0 7.77037,-3.80135 16.18065,-8.36298zm-573.27024,-8.99654c1.55407,-5.19518 1.27983,-17.2328 -0.45708,-19.64032c-0.73133,-1.01369 -2.10257,-0.38014 -5.1193,2.02739c-4.20514,3.42122 -5.75921,6.96915 -4.47939,10.01023c1.46266,3.42122 7.13045,12.29104 7.86178,12.29104c0.36566,0 1.37124,-2.1541 2.19399,-4.68834zm226.07197,-3.04108c0,-8.36298 -3.56523,-29.90398 -7.03904,-42.95529c-3.29098,-12.03762 -21.0257,-65.12985 -31.44713,-94.14685c-6.49054,-17.86636 -13.16392,-31.80466 -18.37463,-38.39367c-14.44374,-17.99307 -46.25654,-19.26019 -65.17967,-2.40752c-9.05019,7.98284 -12.88967,18.62663 -12.06692,33.57862c2.01115,37.25326 36.10935,81.47567 98.45512,127.97889c15.3579,11.53077 30.89864,21.41429 33.64112,21.541c1.73691,0 2.01115,-0.63356 2.01115,-5.19518zm555.26128,0.63356c0.82274,-2.91437 -1.73691,-10.13694 -4.47939,-12.67118c-2.92531,-2.66095 -5.02788,-1.39383 -6.39913,3.92806c-0.73133,3.04108 -0.5485,3.80135 2.10257,7.09586c3.29098,4.05478 7.86178,4.94176 8.77594,1.64725zm-110.52204,-2.91437c25.87075,-6.08217 45.43379,-15.71226 59.96895,-29.39713c9.32444,-8.74311 14.44374,-19.51361 14.53516,-30.41083c0,-13.30474 -6.94762,-30.66425 -14.53516,-36.23957c-10.60427,-7.72942 -21.0257,-1.14041 -48.81619,31.1711c-23.49393,27.11632 -39.49175,42.95529 -58.50629,57.78057c-5.39355,4.18149 -9.78152,7.98284 -9.78152,8.48969c0,1.64725 5.39355,2.02739 25.5965,1.64725c15.54073,-0.25342 23.21968,-1.01369 31.53855,-3.04108zm-697.77895,0.25342c2.01115,-2.53424 2.19399,-7.47599 0.18283,-8.48969c-1.82832,-1.01369 -6.21629,-1.01369 -8.04462,0c-1.91974,1.01369 -1.82832,5.44861 0.09142,8.36298c1.82832,2.78766 5.57638,2.91437 7.77037,0.12671zm835.17732,-1.90068c1.27983,-1.77396 1.46266,-11.02392 0.18283,-15.45884c-2.01115,-7.34928 -9.05019,-9.12325 -11.15276,-2.66095c-1.37124,4.3082 -0.36566,8.48969 3.83948,14.44514c3.83948,5.44861 5.30213,6.20888 7.13045,3.67464zm-337.32534,-12.03762c3.01673,-6.84244 10.96993,-22.93483 17.6433,-35.85943c6.67337,-12.9246 17.55189,-33.95876 24.31668,-46.88336c27.24199,-52.7121 40.49732,-90.21878 40.49732,-115.181c0,-26.22934 -16.82056,-31.04438 -32.54412,-9.24996c-20.75145,28.76357 -45.98229,112.13992 -54.39257,179.55058c-2.2854,18.49992 -3.29098,39.91421 -1.91974,39.91421c0.45708,0 3.3824,-5.57532 6.39913,-12.29104zm-153.39618,-20.4006c-1.46266,-32.94506 -3.74806,-53.72579 -9.14161,-84.51675c-10.96993,-62.08877 -28.52182,-107.83172 -46.71362,-121.6433c-4.11372,-3.16779 -5.94205,-3.67464 -11.42701,-3.67464c-7.31329,0 -9.05019,1.14041 -11.06135,7.72942c-3.65664,12.41775 1.91974,44.0957 13.43816,75.64693c3.29098,9.12325 15.9064,39.66079 27.97332,67.91751c12.06692,28.25673 24.59093,57.65386 27.79049,65.25656c3.10815,7.72942 6.39913,14.95199 7.13045,16.21911c1.37124,2.1541 1.46266,2.1541 2.19399,-0.38014c0.36566,-1.52054 0.36566,-11.65748 -0.18283,-22.5547zm-145.80865,15.20541c-0.5485,-0.63356 -7.03904,-6.08217 -14.62657,-12.29104c-27.42482,-22.30127 -30.89864,-26.10263 -54.84965,-59.55453c-24.59093,-34.33889 -27.51624,-37.37997 -37.20635,-37.37997c-2.92531,0 -6.76479,0.76027 -8.41028,1.77396c-4.5708,2.66095 -10.42143,10.51708 -13.16392,17.73965c-2.10257,5.57532 -2.46823,7.98284 -2.46823,17.86636c0,9.24996 0.36566,12.29104 2.01115,16.47253c9.6901,24.83551 38.669,42.82858 83.91996,51.95183c16.54631,3.29451 46.53079,5.57532 44.79388,3.42122zm-161.89788,-14.31843c5.21072,-5.70203 5.02788,-12.54447 -0.5485,-12.54447c-4.84505,0 -11.51843,12.29104 -7.77037,14.31843c2.55965,1.52054 6.03346,0.76027 8.31886,-1.77396zm-28.70465,-8.23627c4.47939,-5.32189 6.58196,-12.54447 4.75364,-16.59924c-0.36566,-0.76027 -2.74248,-1.90068 -5.30213,-2.28081l-4.66222,-0.88698l-1.09699,5.70203c-1.91974,10.64379 -1.00558,17.35951 2.2854,17.35951c0.63991,0 2.37682,-1.52054 4.02231,-3.29451zm794.40574,-7.60271c0,-8.99654 -1.09699,-11.91091 -4.5708,-11.91091c-2.55965,0 -2.74248,0.25342 -2.74248,5.06847c0,8.23627 2.2854,12.79789 6.67337,13.81158c0.36566,0 0.63991,-3.04108 0.63991,-6.96915zm28.24757,-2.40752c1.55407,-2.53424 2.8339,-5.06847 2.8339,-5.70203c0,-0.50685 0.27425,-1.90068 0.5485,-2.91437c0.73133,-2.91437 -2.8339,-7.22257 -5.94205,-7.22257c-3.47381,0 -5.57638,4.05478 -5.57638,10.51708c0,10.39037 3.47381,12.67118 8.13603,5.32189zm-791.11477,-26.73618c2.10257,-1.14041 5.21072,-10.26365 4.84505,-14.19172c-0.36566,-4.68834 -3.65664,-5.19518 -6.67337,-1.01369c-2.46823,3.54793 -3.19956,11.65748 -1.18841,14.44514c1.27983,1.77396 1.09699,1.77396 3.01673,0.76027zm-25.68792,-6.33559c2.8339,-1.52054 3.47381,-5.19518 2.19399,-12.54447l-1.18841,-6.96915l-4.93647,0l-4.93647,0l0.5485,5.70203c1.27983,12.16433 3.65664,16.21911 8.31886,13.81158zm781.059,-16.34582c0.27425,-6.20888 -2.37682,-12.79789 -5.94205,-14.69857c-5.85063,-3.04108 -5.94205,6.84244 -0.09142,16.0924c3.65664,5.70203 5.6678,5.19518 6.03346,-1.39383zm21.48278,-4.68834c4.84505,-9.12325 1.46266,-36.23957 -4.20514,-33.19848c-2.19399,1.14041 -4.29656,7.09586 -4.29656,11.91091c0,4.05478 2.55965,22.68141 3.3824,24.45537c0.82274,1.90068 3.19956,0.38014 5.1193,-3.16779zm-764.78693,-26.60947c4.93647,-7.34928 6.30771,-13.81158 3.29098,-15.96568c-4.02231,-2.91437 -8.04462,2.91437 -9.05019,13.43145c-0.5485,5.95545 -0.45708,6.58901 1.18841,6.58901c0.91416,0 3.01673,-1.90068 4.5708,-4.05478zm711.49136,-5.70203c0,-2.02739 0.27425,-4.81505 0.5485,-6.33559c0.36566,-1.90068 0.09142,-2.91437 -1.18841,-3.42122c-2.37682,-1.01369 -9.32444,-1.39383 -9.96435,-0.38014c-1.18841,1.52054 7.58753,13.55816 9.87294,13.55816c0.45708,0 0.73133,-1.52054 0.73133,-3.42122zm-734.80246,-0.50685c3.10815,-2.28081 5.30213,-10.89721 5.21072,-20.78073c-0.09142,-11.53077 -0.91416,-15.0787 -3.29098,-15.58555c-3.3824,-0.76027 -6.03346,6.20888 -6.49054,17.35951c-0.36566,8.6164 0.91416,20.4006 2.19399,20.4006c0.27425,0 1.27983,-0.63356 2.37682,-1.39383zm764.51269,-18.88005c2.92531,-3.80135 2.37682,-6.84244 -2.2854,-12.79789c-7.77037,-9.88352 -20.4772,-9.88352 -18.7403,0c1.00558,5.44861 3.56523,10.7705 6.94762,13.81158c4.02231,3.92806 10.69568,3.42122 14.07808,-1.01369zm-706.46347,-13.43145c3.74806,-3.92806 3.83948,-6.20888 0.18283,-8.74311c-2.19399,-1.64725 -3.01673,-1.77396 -4.11372,-0.50685c-2.01115,2.28081 -4.02231,8.10955 -4.02231,11.78419c0,3.04108 0.18283,3.16779 2.46823,1.90068c1.46266,-0.76027 3.93089,-2.78766 5.48496,-4.43491zm652.16232,1.90068c1.64549,-2.28081 1.73691,-2.91437 0.5485,-5.32189c-2.65107,-5.70203 -5.75921,-7.60271 -13.0725,-8.23627l-7.03904,-0.63356l0.63991,3.67464c0.91416,4.94176 3.01673,7.98284 7.4047,10.7705c4.93647,3.16779 9.14161,3.04108 11.51843,-0.25342zm-674.92493,-19.3869c3.3824,-2.53424 8.13603,-9.50338 9.32444,-13.9383c1.37124,-5.32189 -0.45708,-7.60271 -6.21629,-7.60271c-8.86736,0 -18.37463,8.36298 -17.09481,14.95199c1.55407,7.22257 8.5017,10.51708 13.98666,6.58901zm634.15335,-2.53424c3.47381,-2.02739 5.02788,-5.32189 5.02788,-10.64379c0,-5.32189 -4.11372,-9.88352 -9.78152,-11.02392c-8.77594,-1.64725 -13.80383,4.68834 -11.88409,14.95199c0.5485,2.53424 1.82832,4.3082 4.5708,5.95545c4.5708,2.91437 7.86178,3.16779 12.06692,0.76027zm57.86638,-1.52054c1.46266,-1.39383 2.01115,-3.16779 2.01115,-6.33559c0,-8.48969 -6.85621,-14.44514 -16.82056,-14.44514c-3.65664,0 -4.29656,0.38014 -3.83948,2.02739c0.27425,1.14041 0.5485,3.04108 0.5485,4.3082c0,3.54793 5.39355,11.40406 9.59869,14.06501c4.47939,2.91437 5.85063,2.91437 8.5017,0.38014zm-636.53017,-5.06847c3.19956,-2.02739 5.6678,-7.98284 4.66222,-11.27735c-0.73133,-2.91437 -10.60427,-2.53424 -14.99224,0.50685c-3.29098,2.28081 -5.6678,6.96915 -5.6678,10.89721c0,2.66095 11.88409,2.53424 15.99781,-0.12671zm545.84542,-9.50338c2.10257,-2.40752 1.46266,-5.06847 -2.37682,-10.13694c-4.20514,-5.57532 -11.51843,-9.12325 -21.20853,-10.64379c-5.94205,-0.76027 -6.21629,-0.76027 -6.21629,1.90068c0,5.95545 5.39355,14.95199 10.87851,17.99307c6.30771,3.54793 16.18065,4.05478 18.92313,0.88698zm-505.89659,-7.47599c6.58196,-2.53424 8.31886,-11.53077 3.3824,-17.86636c-2.37682,-3.16779 -3.56523,-3.67464 -7.77037,-3.67464c-14.26091,0 -17.91755,14.69857 -5.21072,20.90744c4.29656,2.1541 5.30213,2.28081 9.59869,0.63356zm457.44607,-7.47599c3.83948,-2.40752 7.9532,-8.36298 7.4047,-10.7705c-0.18283,-0.76027 -2.37682,-2.91437 -4.84505,-4.81505c-10.33002,-7.98284 -19.56304,-5.06847 -19.56304,5.95545c0,4.94176 1.55407,8.23627 4.84505,10.13694c4.02231,2.40752 7.67895,2.28081 12.15834,-0.50685zm-512.66138,-3.29451c3.10815,-3.67464 5.02788,-9.24996 4.5708,-13.55816c-0.27425,-2.53424 -0.82274,-2.91437 -4.5708,-3.29451c-4.84505,-0.38014 -9.05019,1.64725 -13.25533,6.58901c-3.65664,4.3082 -3.83948,7.34928 -0.63991,10.7705c3.56523,3.92806 10.33002,3.67464 13.89524,-0.50685zm611.57358,0.38014c0.36566,-2.91437 -5.75921,-12.03762 -9.23302,-13.55816c-1.64549,-0.63356 -4.47939,-1.64725 -6.30771,-2.1541c-3.3824,-0.76027 -3.47381,-0.63356 -3.47381,2.91437c0,3.67464 1.91974,8.6164 4.5708,11.40406c3.83948,4.3082 13.89524,5.32189 14.44374,1.39383zm-514.76395,-3.80135c4.11372,-2.66095 9.41586,-10.01023 9.41586,-13.05131c0,-0.88698 0.27425,-2.53424 0.5485,-3.67464c0.45708,-1.77396 -0.36566,-2.02739 -6.12488,-2.02739c-4.11372,0.12671 -8.68453,1.01369 -11.60984,2.40752c-5.48496,2.66095 -13.89524,10.13694 -13.89524,12.41775c0,2.28081 4.20514,5.70203 8.04462,6.71572c4.47939,1.14041 8.95878,0.12671 13.621,-2.78766zm43.69689,-10.26365c0.73133,-1.64725 1.64549,-5.57532 1.91974,-8.74311c0.82274,-8.10955 -1.46266,-11.15064 -8.04462,-11.02392c-5.57638,0 -12.43259,3.29451 -13.89524,6.4623c-1.55407,3.54793 1.27983,8.74311 6.76479,12.79789c6.21629,4.43491 11.24418,4.56162 13.25533,0.50685zm425.17619,-2.66095c1.55407,-1.77396 1.64549,-2.1541 0.36566,-5.32189c-2.46823,-6.20888 -5.75921,-8.48969 -11.88409,-8.48969c-7.13045,0 -9.41586,2.40752 -7.31329,7.72942c0.82274,1.90068 2.8339,4.43491 4.5708,5.57532c3.93089,2.78766 11.79267,2.91437 14.26091,0.50685zm-525.91671,-8.86982c4.02231,-2.28081 7.03904,-7.22257 7.31329,-11.65748c0.18283,-3.29451 -0.18283,-3.67464 -2.65107,-4.05478c-2.74248,-0.38014 -9.59869,3.16779 -12.24975,6.33559c-2.01115,2.28081 -5.48496,8.74311 -5.48496,10.01023c0,1.77396 9.78152,1.26712 13.0725,-0.63356zm455.43492,-2.66095c2.65107,-1.90068 5.6678,-7.72942 4.66222,-9.12325c-0.18283,-0.38014 -4.5708,0.25342 -9.59869,1.26712c-9.32444,1.90068 -13.80383,4.43491 -13.80383,7.85613c0,2.78766 14.53516,2.66095 18.7403,0zm30.62439,-2.66095c4.29656,-2.40752 4.5708,-4.18149 1.18841,-9.37667c-1.82832,-2.78766 -3.65664,-4.18149 -6.30771,-4.68834l-3.83948,-0.63356l-1.91974,7.22257c-1.09699,3.92806 -1.73691,7.72942 -1.46266,8.36298c0.91416,1.90068 8.31886,1.26712 12.34117,-0.88698zm-434.77488,-7.60271c1.18841,-0.63356 1.46266,-2.1541 1.27983,-7.34928c-0.27425,-6.20888 -0.36566,-6.4623 -3.19956,-6.84244c-9.05019,-1.26712 -19.83729,10.13694 -14.16949,14.95199c1.55407,1.39383 13.0725,0.88698 16.08923,-0.76027zm73.49853,-3.80135c-0.45708,-3.67464 -4.66222,-6.71572 -11.70126,-8.6164c-3.74806,-1.14041 -7.77037,-2.28081 -8.77594,-2.66095c-1.37124,-0.63356 -2.10257,-0.12671 -2.55965,1.39383c-1.91974,7.09586 4.47939,11.27735 18.00897,11.78419c4.47939,0.12671 5.30213,-0.25342 5.02788,-1.90068zm-38.21192,-8.10955c0,-5.19518 -2.10257,-10.64379 -4.84505,-12.29104c-3.10815,-2.02739 -9.23302,2.66095 -9.59869,7.47599c-0.36566,3.80135 1.73691,5.95545 7.13045,7.47599c6.58196,1.77396 7.31329,1.52054 7.31329,-2.66095z"/>
  </g>
 </g>
</svg>