<svg width="64" height="64" xmlns="http://www.w3.org/2000/svg" stroke="null" style="vector-effect: non-scaling-stroke;" preserveAspectRatio="xMidYMid meet" version="1.0">
 <metadata stroke="null" style="vector-effect: non-scaling-stroke;">Created by potrace 1.15, written by Peter Selinger 2001-2017</metadata>

 <g stroke="null">
  <title stroke="null">Layer 1</title>
  <g stroke="null" id="svg_1" fill="#4caf50" transform="translate(0 880) scale(0.1 -0.1)">
   <path stroke="null" id="svg_2" d="m597.1146,8754.35011c-44.40658,-3.30954 -86.62313,-23.40318 -130.00458,-61.93568c-21.90041,-19.44355 -47.85473,-47.75194 -65.88763,-71.86431c-25.48835,-34.10009 -48.3207,-70.32773 -59.83007,-94.91289c-3.96071,-8.39205 -7.59525,-13.71095 -8.62038,-12.41078c-0.69895,0.88648 0.41937,3.72323 2.7958,7.15097c4.75286,6.79638 4.56647,10.9924 -0.69895,16.07491l-2.51622,2.36396l0.32618,2.77765c1.21151,11.1106 15.00411,50.29319 26.09411,74.22826c5.26542,11.40609 13.8392,27.9538 18.35907,35.40026c4.47328,7.38737 10.62403,15.36572 14.25857,18.49797c1.53769,1.30018 5.21882,3.84143 8.20101,5.6735c6.05756,3.66413 8.06122,5.96899 8.57378,9.81042c0.41937,3.19134 -0.0466,4.78701 -1.3513,4.78701c-1.3513,0 -7.87483,-4.96431 -13.18684,-9.92862c-5.21882,-4.96431 -14.11878,-16.25221 -19.43079,-24.64426c-14.44495,-22.87129 -29.26268,-57.68056 -43.38146,-101.76837c-2.28323,-7.15097 -3.91412,-11.46519 -4.38008,-11.64249c-0.41937,-0.1773 -1.86386,-0.35459 -3.26176,-0.47279l-2.56281,-0.1773l-3.86752,11.52429c-10.11147,30.19956 -22.55277,58.27155 -34.99407,79.19257c-14.58474,24.40786 -31.03335,43.43772 -42.58932,49.05212c-5.96437,2.95495 -7.64185,1.77297 -5.4984,-3.84143c1.30471,-3.42774 4.70626,-6.26449 10.20466,-8.56935c2.32983,-0.94558 4.89265,-2.18666 5.73138,-2.71855c7.31567,-4.72791 19.47739,-20.09364 29.63545,-37.52782c14.11878,-24.28966 28.37734,-58.09425 35.55322,-84.57058l1.58429,-5.6735l-2.88899,-3.84143c-1.58429,-2.06846 -3.02878,-4.49152 -3.21517,-5.378c-0.46597,-2.36396 0.60576,-4.96431 4.05391,-9.57403c3.21517,-4.31422 4.00731,-6.08719 3.35496,-7.62376c-0.32618,-0.70919 -0.79214,-0.2364 -2.23664,2.18666c-38.58201,64.59514 -84.61947,119.37985 -135.3632,160.9855c-28.84331,23.63957 -56.14893,39.35989 -83.17498,47.81104c-18.96483,5.90989 -33.73596,8.33295 -55.44998,8.98304l-12.16172,0.35459l-2.00365,-2.89585c-3.68113,-5.3189 -5.07903,-10.46051 -5.4984,-20.03454c-1.11832,-27.5992 13.69941,-71.92341 33.82915,-101.47287c13.28004,-19.38445 13.09365,-19.02986 13.09365,-27.5992c0,-3.25044 0.23298,-7.32827 0.51256,-9.04214c0.27958,-1.71387 2.65601,-8.68754 5.31202,-15.54302c5.545,-14.30194 6.66332,-18.43887 8.3408,-30.90874c2.56281,-18.49797 4.1471,-23.87597 8.20101,-27.7765l2.09685,-2.06846l0.27958,-8.03746c0.23298,-6.08719 0.60576,-9.33763 1.53769,-13.35636c3.12197,-13.59276 10.48424,-27.00821 17.9397,-32.56351c0.79214,-0.59099 1.4445,-1.30018 1.4445,-1.53657c0,-0.2364 -0.69895,-1.47747 -1.58429,-2.65945c-3.54134,-5.02341 -4.75286,-10.16502 -5.40521,-23.46228c-1.3979,-27.42191 -1.49109,-28.60389 -3.72773,-35.04567l-1.02513,-3.07314l1.16492,-3.13224c0.74555,-1.95026 1.3979,-5.20071 1.72408,-8.45115c1.07172,-10.8742 1.77067,-13.82915 4.00731,-16.8432l1.11832,-1.53657l-0.97853,-3.13224c-0.65235,-2.30486 -0.93193,-4.55062 -0.93193,-8.33295c0,-6.08719 0.55916,-9.45583 2.60941,-15.12933c1.77067,-4.90521 4.1937,-8.51025 7.50206,-11.2288c2.28323,-1.83207 2.42302,-2.12756 2.7026,-5.08251c0.74555,-6.79638 4.70626,-15.72032 9.92508,-22.1621c2.7958,-3.42774 4.05391,-4.43242 10.90361,-8.39205c1.16492,-0.70919 4.38008,-3.90053 7.12928,-7.15097c4.05391,-4.78701 5.40521,-6.02809 7.36227,-6.79638c1.30471,-0.47279 2.98218,-0.88648 3.68113,-0.88648c2.19004,0 5.21882,-1.71387 8.57378,-4.96431c5.545,-5.378 5.26542,-5.20071 10.90361,-5.3189l5.12563,-0.0591l8.06122,-5.14161c10.62403,-6.79638 13.28004,-7.50556 19.10462,-5.20071c3.49475,1.41837 7.26907,1.47747 13.65281,0.29549c2.56281,-0.47279 6.66332,-0.82739 9.08634,-0.82739c5.07903,-0.0591 6.70991,0.65009 11.50937,5.02341c3.68113,3.36864 6.01096,4.66882 10.20466,5.7917c4.42668,1.12288 6.8497,2.77765 9.97168,6.79638c4.61307,5.85079 13.04705,23.52138 22.0868,46.15627c9.87848,24.76245 17.47373,49.11122 28.05117,89.83038c1.21151,4.72791 2.28323,8.15565 2.32983,7.68286c0.09319,-0.47279 0.37277,-7.91926 0.65235,-16.5477c1.16492,-35.69576 3.40155,-50.52959 9.08634,-59.33533l1.11832,-1.77297l0.93193,1.47747c2.60941,4.01873 5.12563,13.11996 6.05756,21.80751c0.23298,2.42306 0.60576,15.66122 0.79214,29.43127c0.13979,13.71095 0.41937,24.93975 0.60576,24.93975c0.13979,0 1.11832,-3.01405 2.09685,-6.67818c5.45181,-19.97544 11.41617,-37.35053 22.22659,-64.83153c16.635,-42.37394 26.93285,-61.40379 37.55688,-69.50035c2.46962,-1.83207 3.68113,-2.30486 10.15806,-3.78233c2.00365,-0.41369 4.00731,-1.53657 6.98949,-3.84143c2.32983,-1.71387 4.84605,-3.48684 5.59159,-3.90053c2.19004,-1.06378 7.31567,-0.76829 14.86432,0.88648c5.73138,1.30018 8.43399,1.53657 15.60987,1.53657c9.78529,0 9.41252,-0.0591 16.5884,5.25981c7.08269,5.3189 10.20466,7.09187 13.8392,7.74196c1.86386,0.35459 4.05391,0.76829 4.89265,0.94558c0.83874,0.1773 3.30836,1.95026 5.59159,4.01873c5.21882,4.72791 6.29054,5.4371 10.29785,6.55998c4.33349,1.24108 5.68479,2.48216 9.87848,9.04214c3.96071,6.14629 5.31202,7.50556 8.15441,8.03746c3.07538,0.59099 5.73138,3.19134 9.6455,9.27853c4.56647,7.09187 5.73138,10.40141 6.38374,17.90698c0.60576,6.73728 0.88534,7.50556 3.02878,9.16034c3.30836,2.60035 6.29054,8.45115 8.01462,15.77942c1.25811,5.25981 1.16492,15.30662 -0.23298,20.27094l-1.02513,3.78233l1.53769,2.00936l1.53769,2.00936l0.27958,10.16502c0.27958,8.39205 0.46597,10.75601 1.3513,13.65185c1.25811,4.43242 1.11832,5.5553 -2.05025,14.77473c-3.12197,8.98304 -3.35496,10.51961 -4.24029,24.58516c-0.93193,15.89761 -2.14344,20.86192 -5.87117,24.70336c-0.74555,0.76829 -1.3513,1.59567 -1.3513,1.83207c0,0.1773 0.69895,0.88648 1.53769,1.53657c2.56281,1.89117 7.36227,8.09655 9.45911,12.23348c4.47328,8.62844 6.61672,19.20715 7.03609,34.15919l0.27958,9.16034l2.28323,2.60035c4.1005,4.60972 4.98584,8.39205 6.19735,26.06263c1.11832,16.6068 2.05025,21.09832 7.12928,35.16387c4.42668,12.35168 5.40521,17.55238 4.79945,25.64894l-0.32618,4.31422l3.21517,6.32359c12.72088,24.70336 20.12974,40.48277 24.836,53.01175c8.2942,22.0439 12.30151,43.02403 11.64916,61.1083c-0.37277,11.2879 -1.67748,17.31599 -4.89265,22.93039l-1.4445,2.48216l-4.1005,-0.0591c-2.23664,-0.0591 -6.8963,-0.35459 -10.34445,-0.59099zm-20.59571,-7.03277c2.46962,-1.41837 2.84239,-2.60035 1.49109,-4.43242c-1.81727,-2.42306 -5.73138,-3.95963 -11.0434,-4.31422c-4.70626,-0.29549 -4.79945,-0.2364 -4.79945,1.00468c0,6.38269 8.62038,11.0515 14.35176,7.74196zm33.40978,-2.95495c0.79214,-0.41369 1.16492,-0.94558 1.07172,-1.65477c-0.13979,-0.76829 -0.83874,-1.12288 -3.40155,-1.41837c-1.81727,-0.29549 -3.77433,-0.29549 -4.33349,-0.1773c-0.97853,0.29549 -1.02513,0.47279 -0.46597,1.30018c1.3979,2.18666 4.75286,3.07314 7.12928,1.95026zm-18.49886,-7.91926c1.81727,-1.18198 3.35496,-4.13693 3.35496,-6.44178c0,-2.60035 -2.56281,-5.4962 -5.26542,-6.02809c-5.07903,-1.00468 -10.57743,2.83675 -9.92508,6.91458c1.02513,6.44178 6.57012,9.04214 11.83554,5.5553zm-518.06128,-11.0515c2.19004,-1.47747 4.33349,-4.90521 4.1005,-6.38269c-0.32618,-2.06846 -14.81773,-0.41369 -17.42714,1.95026c-1.30471,1.24108 -0.23298,3.66413 2.28323,5.14161c2.7958,1.65477 8.20101,1.30018 11.0434,-0.70919zm492.38654,1.18198c4.70626,-0.76829 9.08634,-3.30954 10.39105,-5.96899c2.7958,-5.85079 -0.74555,-11.64249 -8.2942,-13.53366c-7.22248,-1.77297 -20.54911,1.12288 -25.81453,5.5553c-3.21517,2.77765 -1.81727,7.21007 3.30836,10.40141c5.68479,3.54594 12.95386,4.84611 20.40932,3.54594zm44.127,-3.54594c2.42302,-2.42306 0.83874,-4.84611 -3.63454,-5.6144c-2.93559,-0.53189 -4.47328,0.0591 -4.47328,1.71387c0,4.07783 5.35861,6.67818 8.10781,3.90053zm-575.7013,-3.07314c3.16857,-1.41837 2.00365,-2.77765 -2.37643,-2.77765c-1.16492,0 -2.46962,0.1773 -2.88899,0.35459c-0.74555,0.35459 -1.02513,2.06846 -0.41937,2.77765c0.46597,0.65009 3.96071,0.41369 5.68479,-0.35459zm501.33309,-1.41837c0.79214,-0.76829 1.30471,-1.83207 1.3979,-3.01405c0.23298,-2.65945 -1.21151,-3.66413 -5.12563,-3.66413c-2.7492,0 -3.21517,0.1773 -3.86752,1.35928c-1.02513,2.06846 -1.3513,4.78701 -0.60576,5.5553c1.63088,1.71387 6.29054,1.53657 8.20101,-0.2364zm-21.34125,-0.70919c0,-0.59099 -0.41937,-1.77297 -0.93193,-2.60035c-1.16492,-1.83207 -6.05756,-5.02341 -8.57378,-5.5553l-1.81727,-0.35459l0.88534,1.89117c2.23664,4.90521 10.43764,10.10592 10.43764,6.61908zm-458.83697,-2.36396c3.49475,-1.06378 5.31202,-5.08251 4.05391,-8.92394c-0.79214,-2.42306 -2.7492,-4.07783 -5.77798,-4.84611c-2.14344,-0.59099 -2.7958,-0.53189 -4.65966,0.35459c-2.7958,1.35928 -3.72773,3.13224 -3.40155,6.38269c0.32618,2.89585 2.14344,5.4962 4.79945,6.67818c2.14344,1.00468 2.65601,1.00468 4.98584,0.35459zm465.77986,-4.60972c1.07172,-0.35459 1.07172,-0.53189 0.88534,-5.14161c-0.32618,-7.21007 -2.7958,-12.17438 -7.59525,-15.12933c-2.05025,-1.24108 -7.73504,-2.42306 -9.6455,-1.95026c-1.07172,0.2364 -1.11832,0.41369 -0.79214,3.01405c1.58429,12.58807 9.6921,21.74841 17.14756,19.20715zm73.52947,-0.82739c2.09685,-1.00468 3.40155,-2.89585 3.40155,-4.96431c0,-4.43242 -4.1471,-8.56935 -8.62038,-8.56935c-2.84239,0 -6.9429,1.41837 -8.71357,3.07314c-2.88899,2.60035 -0.79214,7.97836 3.91412,10.10592c2.37643,1.06378 8.15441,1.30018 10.01827,0.35459zm-500.54095,-4.72791c4.79945,-1.65477 6.33714,-3.78233 5.17223,-7.21007c-1.3513,-4.19602 -6.98949,-8.74664 -13.32663,-10.81511c-2.23664,-0.70919 -4.42668,-0.88648 -8.66697,-0.70919c-5.21882,0.2364 -5.87117,0.35459 -8.71357,2.18666c-3.30836,2.00936 -5.17223,4.49152 -5.63819,7.50556c-0.79214,4.72791 5.03244,8.27385 16.02924,9.75132c4.24029,0.53189 12.58109,0.1773 15.1439,-0.70919zm403.29379,0.94558c0,-0.1773 -0.51256,-1.59567 -1.11832,-3.13224c-2.28323,-5.7326 -7.87483,-10.51961 -13.09365,-11.1697l-2.60941,-0.35459l0.51256,1.71387c1.3513,4.43242 3.77433,7.62376 7.82823,10.22412c2.88899,1.89117 8.48059,3.66413 8.48059,2.71855zm-366.38926,-4.72791c3.35496,-1.53657 5.73138,-4.13693 5.73138,-6.26449c0,-1.06378 -0.18639,-1.18198 -1.49109,-0.82739c-4.98584,1.35928 -8.76017,4.60972 -8.76017,7.44647c0,1.47747 0.69895,1.41837 4.51987,-0.35459zm-18.49886,0c3.30836,-2.18666 0.32618,-7.38737 -4.24029,-7.38737c-2.7026,0 -4.61307,1.71387 -4.61307,4.13693c0,2.60035 1.86386,4.13693 4.98584,4.13693c1.3979,0 3.12197,-0.41369 3.86752,-0.88648zm450.1234,0.0591c5.31202,-1.24108 8.80676,-3.13224 11.09,-6.02809c1.25811,-1.53657 1.95706,-2.95495 1.86386,-3.60504c-0.18639,-1.35928 -4.51987,-4.66882 -7.82823,-5.96899c-4.1005,-1.59567 -14.30516,-1.30018 -20.08315,0.65009c-6.75651,2.24576 -11.78895,5.7917 -13.23344,9.21943l-0.65235,1.71387l2.42302,1.18198c3.40155,1.71387 5.31202,2.36396 8.2476,3.01405c3.96071,0.82739 14.25857,0.70919 18.17268,-0.1773zm-525.19056,-4.07783c1.81727,-4.66882 0.37277,-5.3189 -6.33714,-3.01405c-1.3513,0.47279 -2.46962,1.06378 -2.46962,1.30018c0,0.76829 2.46962,3.54594 3.72773,4.19602c0.65235,0.35459 1.81727,0.53189 2.56281,0.47279c1.16492,-0.1182 1.58429,-0.59099 2.51622,-2.95495zm90.77023,-4.19602c3.16857,-1.89117 6.43033,-6.08719 7.92143,-10.16502c1.25811,-3.54594 1.95706,-9.86952 1.16492,-10.51961c-0.74555,-0.59099 -6.9429,0.70919 -10.29785,2.12756c-3.54134,1.41837 -6.70991,4.84611 -7.54865,7.97836c-0.27958,1.12288 -0.41937,3.66413 -0.32618,5.6735c0.18639,2.95495 0.41937,3.78233 1.49109,4.96431c1.67748,1.83207 4.42668,1.77297 7.59525,-0.0591zm473.46831,-1.89117c1.53769,-1.35928 1.3979,-4.90521 -0.23298,-7.38737c-2.28323,-3.42774 -5.73138,-4.37332 -8.38739,-2.30486c-1.95706,1.47747 -2.37643,3.54594 -1.21151,6.02809c1.81727,3.90053 7.26907,5.96899 9.83189,3.66413zm-453.15218,-0.53189c6.24395,-2.06846 11.55596,-6.85548 12.67428,-11.46519l0.32618,-1.41837l-3.07538,0.41369c-4.1005,0.53189 -7.59525,2.24576 -10.06487,4.90521c-1.81727,2.00936 -4.65966,6.85548 -4.65966,7.97836c0,0.70919 1.86386,0.59099 4.79945,-0.41369zm381.53317,-2.00936c0.51256,-0.65009 -0.46597,-3.90053 -1.91046,-6.08719c-3.35496,-5.08251 -11.46277,-7.74196 -17.24075,-5.6144c-1.3979,0.53189 -2.98218,1.30018 -3.44815,1.77297c-0.83874,0.76829 -0.79214,0.94558 0.88534,3.30954c2.7492,3.84143 6.9429,6.20539 12.4413,7.09187c3.02878,0.47279 8.76017,0.1773 9.27273,-0.47279zm-472.76936,-1.77297c2.14344,-1.18198 4.89265,-4.90521 4.89265,-6.61908c0,-0.70919 -0.79214,-1.77297 -2.19004,-2.95495c-6.57012,-5.25981 -14.72453,-4.49152 -16.40201,1.53657c-0.55916,2.06846 -0.51256,2.65945 0.09319,4.55062c1.53769,4.66882 8.2476,6.38269 13.60621,3.48684zm45.19873,-5.4371c2.05025,-0.35459 3.91412,-0.82739 4.1005,-1.06378c0.74555,-0.94558 -0.32618,-3.90053 -2.32983,-6.38269c-4.1005,-5.02341 -11.55596,-8.21475 -20.6423,-8.86484c-4.79945,-0.29549 -13.04705,0.41369 -16.12243,1.35928c-1.3979,0.47279 -1.49109,2.48216 -0.23298,5.85079c2.05025,5.6735 6.47693,8.74664 14.25857,9.81042c3.91412,0.47279 15.79626,0.1182 20.96848,-0.70919zm376.8735,0.29549c-0.41937,-1.41837 -9.5989,-11.64249 -13.55962,-15.12933c-1.95706,-1.65477 -5.63819,-4.43242 -8.2476,-6.08719c-4.65966,-3.01405 -14.02558,-7.26917 -14.53815,-6.61908c-0.55916,0.70919 2.19004,5.5553 5.31202,9.33763c6.38374,7.86016 15.93605,14.47924 25.76793,17.96608c4.84605,1.71387 5.63819,1.77297 5.26542,0.53189zm109.0361,-7.21007l2.23664,-1.24108l-0.13979,-4.60972l-0.13979,-4.60972l-2.56281,-1.71387c-1.86386,-1.30018 -3.21517,-1.77297 -4.98584,-1.77297c-2.14344,-0.0591 -2.65601,0.1773 -3.91412,1.83207c-2.7026,3.42774 -2.28323,10.22412 0.88534,12.76537c1.67748,1.35928 5.59159,1.06378 8.62038,-0.65009zm-36.85793,0.47279c4.89265,-0.88648 9.03975,-2.89585 11.09,-5.25981l1.77067,-2.12756l-0.65235,-3.84143c-1.11832,-6.67818 -4.65966,-11.40609 -10.25126,-13.59276c-9.17954,-3.60504 -19.57058,1.71387 -21.62083,10.9924c-2.14344,9.69223 7.03609,16.13401 19.66378,13.82915zm-426.35912,-3.19134c3.82092,-1.06378 5.68479,-2.24576 7.96802,-4.96431c2.05025,-2.54125 2.14344,-3.25044 0.46597,-4.25512c-6.52353,-3.78233 -13.69941,-3.25044 -18.59205,1.47747c-2.7026,2.60035 -4.00731,7.56466 -2.14344,8.15565c1.81727,0.59099 9.36592,0.35459 12.30151,-0.41369zm385.2609,-1.24108c1.16492,-0.47279 2.60941,-1.47747 3.26176,-2.12756l1.16492,-1.12288l-1.86386,-2.12756c-3.96071,-4.49152 -10.29785,-7.32827 -16.30882,-7.32827c-4.1005,0 -6.43033,0.65009 -7.73504,2.12756c-1.07172,1.18198 -0.46597,3.66413 1.53769,6.20539c4.1005,5.14161 13.60621,7.26917 19.94336,4.37332zm-338.99045,-3.01405c5.73138,-1.83207 11.55596,-5.02341 16.5418,-9.04214c4.24029,-3.36864 12.58109,-12.17438 12.58109,-13.23816c0,-0.94558 -5.35861,-0.0591 -10.01827,1.65477c-5.35861,1.95026 -13.46642,7.03277 -18.03289,11.40609c-4.51987,4.31422 -9.6921,10.04682 -9.6921,10.81511c0,0.76829 3.21517,0.1773 8.62038,-1.59567zm-123.38786,0.0591c2.05025,-1.53657 3.40155,-4.01873 3.40155,-6.14629c0,-2.95495 -4.33349,-5.02341 -7.64185,-3.60504c-3.68113,1.53657 -5.21882,6.79638 -2.84239,9.75132c1.53769,2.00936 4.33349,2.00936 7.08269,0zm59.08452,-12.70627c2.98218,-1.83207 4.42668,-4.72791 4.42668,-8.86484c-0.0466,-9.16034 -6.47693,-15.36572 -16.07584,-15.36572c-8.80676,0 -15.51668,5.378 -16.35542,13.06086c-0.46597,4.19602 0.65235,6.79638 3.63454,8.45115c7.54865,4.25512 19.71037,5.5553 24.37003,2.71855zm41.471,-0.2364c3.16857,-1.83207 5.4984,-4.37332 6.33714,-7.03277c0.74555,-2.30486 0.0466,-3.01405 -4.1005,-3.95963c-3.54134,-0.88648 -8.43399,-0.53189 -12.72088,0.88648c-3.35496,1.12288 -10.25126,4.90521 -10.25126,5.6735c0,0.82739 2.46962,3.42774 4.1937,4.49152c2.7026,1.59567 4.1937,1.89117 9.08634,1.71387c3.91412,-0.1182 5.12563,-0.41369 7.45546,-1.77297zm419.92878,1.30018c0.83874,-1.41837 1.02513,-3.54594 0.51256,-7.03277l-0.46597,-3.48684l-2.7026,0c-2.60941,0 -2.7026,0.0591 -3.21517,1.83207c-0.79214,2.83675 -0.60576,4.90521 0.46597,6.67818c1.53769,2.48216 4.47328,3.54594 5.40521,2.00936zm-504.96762,-2.95495c2.37643,-1.53657 4.1937,-4.60972 4.1937,-7.03277c0,-2.00936 -2.00365,-5.14161 -4.05391,-6.20539c-1.95706,-1.06378 -6.29054,-1.06378 -8.20101,0c-3.58794,1.95026 -4.93924,6.26449 -3.02878,9.81042c2.42302,4.55062 7.08269,5.96899 11.09,3.42774zm419.09004,-4.01873c0.65235,-0.29549 1.21151,-0.76829 1.21151,-1.06378c0,-0.29549 -1.25811,-2.48216 -2.7958,-4.90521c-4.65966,-7.21007 -10.06487,-22.2212 -12.11512,-33.62729c-0.32618,-1.77297 -0.83874,-3.84143 -1.16492,-4.49152c-0.37277,-0.70919 -2.7026,-2.89585 -5.26542,-4.84611c-14.72453,-11.46519 -26.79306,-28.24929 -30.3344,-42.19664c-0.32618,-1.24108 -1.3513,-3.01405 -2.28323,-4.01873c-0.93193,-1.00468 -10.95021,-7.68286 -22.22659,-14.89293c-21.10827,-13.53366 -22.50617,-14.59744 -40.77205,-30.67235c-9.55231,-8.33295 -17.61352,-12.82447 -25.25537,-13.82915l-3.12197,-0.41369l0.23298,3.13224c0.69895,8.45115 3.96071,18.73436 8.80676,27.7174c4.51987,8.45115 7.08269,12.17438 22.59936,33.1545c3.72773,5.02341 9.36592,12.94267 12.58109,17.61148c3.21517,4.72791 8.76017,12.82447 12.30151,18.02518c7.45546,10.8742 20.78209,28.0129 25.90772,33.2727c13.18684,13.47456 25.53495,20.09364 40.91184,21.9848c5.77798,0.70919 19.3842,0.76829 20.78209,0.0591zm29.77524,-0.88648c7.64185,-2.06846 12.3947,-8.27385 14.11878,-18.55707c2.37643,-14.30194 -1.81727,-27.12641 -10.62403,-32.44532c-5.21882,-3.19134 -12.90727,-3.90053 -20.17634,-1.89117c-5.40521,1.53657 -23.20512,7.68286 -23.62449,8.21475c-0.46597,0.53189 2.7026,20.09364 4.00731,24.40786c1.49109,5.08251 2.93559,7.86016 5.59159,10.9924c6.19735,7.26917 21.29466,11.81979 30.70718,9.27853zm72.73733,-3.95963c0.23298,-1.12288 0.27958,-2.83675 0.09319,-3.72323c-0.79214,-3.90053 -5.68479,-7.15097 -7.12928,-4.72791c-0.83874,1.53657 -0.74555,5.378 0.18639,7.44647c0.79214,1.65477 2.14344,2.60035 4.33349,3.07314c1.81727,0.35459 2.05025,0.1773 2.51622,-2.06846zm-398.82051,-6.97367c21.71403,-3.07314 34.15533,-12.64717 63.60439,-48.75662c5.4984,-6.73728 15.56327,-18.85256 22.36638,-26.89002c15.1905,-17.96608 28.09776,-34.57288 32.29146,-41.66475c4.93924,-8.27385 7.45546,-15.54302 8.52718,-24.46696l0.27958,-2.60035l-4.1471,0.41369c-4.28689,0.41369 -10.06487,2.18666 -14.49155,4.43242c-3.63454,1.83207 -6.33714,3.66413 -17.33394,11.58339c-20.08315,14.47924 -32.99041,22.3985 -44.73276,27.48101c-13.55962,5.85079 -15.05071,7.21007 -18.96483,17.49329c-5.12563,13.53366 -9.5989,18.85256 -27.5852,32.44532l-8.57378,6.50088l-1.02513,4.72791c-2.37643,11.1106 -7.50206,22.98949 -14.39836,33.62729c-2.14344,3.30954 -2.51622,4.19602 -1.95706,4.60972c1.86386,1.35928 19.24441,2.00936 26.14071,1.06378zm367.36779,-1.24108c4.24029,-3.01405 5.96437,-10.10592 3.86752,-16.07491c-3.02878,-8.68754 -15.2371,-10.16502 -18.49886,-2.18666c-2.60941,6.38269 -0.0466,15.95671 5.07903,19.02986c2.56281,1.47747 6.8963,1.18198 9.55231,-0.76829zm-473.14213,-1.83207c0.88534,-2.77765 1.30471,-6.08719 0.93193,-7.50556c-0.23298,-1.06378 -0.65235,-1.24108 -3.02878,-1.24108l-2.7492,0l-0.93193,3.25044c-1.77067,5.90989 -1.21151,7.32827 2.88899,7.38737c2.09685,0 2.28323,-0.1182 2.88899,-1.89117zm70.03473,-1.41837c9.36592,-2.36396 15.51668,-8.56935 18.45226,-18.55707c1.3979,-4.78701 5.59159,-22.98949 5.35861,-23.28498c-0.23298,-0.29549 -11.0434,-5.08251 -18.12609,-8.03746c-2.93559,-1.24108 -7.17588,-2.60035 -9.41252,-2.95495c-12.11512,-2.06846 -23.11193,4.49152 -27.53861,16.37041c-1.3979,3.84143 -1.49109,4.37332 -1.4445,10.81511c0,5.6144 0.18639,7.38737 1.07172,10.22412c2.60941,8.33295 7.92143,13.35636 16.5884,15.54302c4.00731,1.00468 10.85701,1.00468 15.05071,-0.1182zm418.90366,-1.77297c1.21151,-1.06378 2.42302,-3.84143 2.42302,-5.5553c0,-1.77297 -2.09685,-2.65945 -4.42668,-1.77297c-2.05025,0.76829 -5.35861,3.36864 -5.35861,4.25512c0,0.29549 0.60576,1.35928 1.3513,2.30486c1.58429,1.95026 4.24029,2.36396 6.01096,0.76829zm-505.71317,-7.09187c2.60941,-1.53657 3.82092,-6.26449 2.28323,-8.98304c-1.3513,-2.48216 -5.07903,-1.12288 -6.43033,2.48216c-1.02513,2.71855 -0.93193,4.84611 0.18639,6.26449c1.11832,1.41837 1.91046,1.47747 3.96071,0.2364zm37.3239,-6.08719c6.05756,-3.48684 7.82823,-15.12933 3.16857,-20.92102c-1.86386,-2.42306 -3.63454,-3.42774 -6.47693,-3.78233c-9.5989,-1.24108 -15.00411,11.81979 -8.66697,21.15742c2.98218,4.43242 7.87483,5.90989 11.97533,3.54594zm-20.12974,-7.21007c1.3979,-1.35928 1.49109,-2.24576 0.55916,-4.60972c-0.83874,-2.00936 -2.51622,-3.01405 -5.07903,-3.01405c-3.35496,0 -4.1471,2.54125 -1.86386,5.90989c2.05025,3.13224 4.33349,3.72323 6.38374,1.71387zm485.53683,-12.11528c0.41937,-1.41837 0.32618,-7.32827 -0.13979,-7.32827c-1.25811,0 -3.26176,1.47747 -3.72773,2.71855c-0.69895,1.95026 -0.65235,4.78701 0.09319,5.14161c1.30471,0.70919 3.49475,0.41369 3.77433,-0.53189zm-16.02924,-0.53189c2.14344,-1.41837 2.19004,-2.89585 0.18639,-6.61908l-1.77067,-3.25044l-2.84239,0.2364c-4.93924,0.53189 -7.59525,3.30954 -6.38374,6.67818c1.16492,3.25044 7.68844,5.02341 10.81042,2.95495zm-58.71175,-4.43242c11.64916,-1.35928 21.24806,-4.25512 24.46323,-7.32827c8.3408,-8.09655 8.2476,-30.08136 -0.18639,-40.48277c-5.35861,-6.61908 -11.09,-6.79638 -40.58566,-1.53657c-23.57789,4.25512 -28.88991,5.90989 -34.34171,10.51961c-2.37643,1.95026 -3.40155,4.25512 -3.40155,7.50556c0,5.02341 4.05391,12.58807 10.76382,20.15274c6.8497,7.80106 10.29785,10.10592 16.35542,11.1106c4.33349,0.70919 20.7355,0.76829 26.93285,0.0591zm-306.37281,-13.82915c4.47328,-1.59567 8.06122,-4.01873 12.67428,-8.51025c8.76017,-8.62844 12.25491,-14.12465 12.25491,-19.26625c0,-8.09655 -6.75651,-12.17438 -30.52079,-18.32067c-5.63819,-1.47747 -14.11878,-3.78233 -18.87163,-5.08251c-7.12928,-2.00936 -9.78529,-2.48216 -15.37689,-2.77765c-6.19735,-0.29549 -6.98949,-0.1773 -9.50571,1.00468c-3.44815,1.65477 -5.82458,4.37332 -7.68844,8.80574c-2.93559,7.03277 -4.33349,18.55707 -2.93559,24.70336c1.49109,6.38269 6.38374,11.93799 13.04705,14.59744c3.77433,1.47747 14.63134,4.01873 23.15852,5.378c6.8963,1.06378 19.98995,0.76829 23.76428,-0.53189zm-101.30106,-1.00468c1.21151,-1.53657 0.83874,-4.37332 -0.79214,-6.26449c-1.4445,-1.65477 -2.7958,-1.71387 -3.44815,-0.2364c-1.07172,2.60035 -0.27958,6.20539 1.53769,7.15097c1.49109,0.76829 1.63088,0.70919 2.7026,-0.65009zm22.17999,0.35459c1.53769,-0.82739 1.63088,-1.00468 1.3513,-2.83675c-0.18639,-1.00468 -1.02513,-2.77765 -1.91046,-3.90053c-1.30471,-1.71387 -1.95706,-2.06846 -4.1471,-2.30486c-4.33349,-0.47279 -7.26907,2.06846 -7.26907,6.14629c0,1.12288 0.0466,2.00936 0.13979,2.00936c0.0466,0 0.93193,0.41369 1.95706,0.88648c2.46962,1.12288 7.73504,1.12288 9.87848,0zm437.86848,-6.44178c2.46962,-1.30018 3.68113,-3.72323 3.44815,-6.91458c-0.37277,-4.72791 -3.21517,-8.03746 -8.06122,-9.39673c-4.1937,-1.18198 -9.50571,0.82739 -9.92508,3.78233c-0.69895,4.31422 2.05025,10.10592 5.68479,12.23348c2.28323,1.30018 6.66332,1.47747 8.85336,0.29549zm15.88945,-7.91926c-0.37277,-2.60035 -3.91412,-7.21007 -5.59159,-7.21007c-2.37643,0 -1.16492,5.25981 2.42302,10.10592l2.23664,3.01405l0.60576,-1.95026c0.37277,-1.12288 0.51256,-2.71855 0.32618,-3.95963zm-446.25588,-10.8742c2.84239,-1.71387 4.51987,-4.72791 4.51987,-8.21475c0,-4.60972 -2.65601,-7.03277 -7.78164,-7.03277c-5.35861,0 -9.6921,3.90053 -9.6921,8.74664c0,6.91458 6.61672,10.22412 12.95386,6.50088zm-23.62449,-4.55062c3.54134,-2.89585 5.07903,-5.7917 5.07903,-9.57403c0,-1.89117 -0.09319,-1.89117 -3.07538,-0.53189c-1.53769,0.76829 -3.35496,3.95963 -4.1471,7.21007c-1.21151,5.25981 -1.02513,5.4962 2.14344,2.89585zm351.75792,-4.49152c2.42302,-0.53189 8.20101,-1.83207 12.81407,-3.01405c7.78164,-1.95026 9.55231,-2.12756 23.76428,-2.89585c19.19781,-1.06378 22.87894,-1.77297 28.79671,-5.7326c7.12928,-4.84611 10.85701,-15.60212 9.22613,-26.59452c-1.11832,-7.32827 -5.82458,-16.8432 -10.48424,-21.03922c-3.16857,-2.89585 -5.545,-3.78233 -10.06487,-3.78233c-4.24029,-0.0591 -7.54865,0.82739 -18.17268,4.84611c-7.92143,2.95495 -15.79626,5.02341 -23.5313,6.20539c-12.02193,1.77297 -16.635,1.18198 -42.63591,-5.3189c-27.07264,-6.73728 -28.9831,-7.09187 -42.40293,-7.09187c-10.29785,0 -11.88214,0.1182 -16.30882,1.35928c-2.7026,0.76829 -6.52353,2.24576 -8.52718,3.19134c-2.88899,1.47747 -3.49475,1.95026 -3.07538,2.65945c0.83874,1.24108 5.73138,4.01873 12.90727,7.26917c12.06853,5.4962 14.44495,7.21007 30.05482,21.39381c21.52764,19.56175 30.4276,25.94443 39.93331,28.48569c4.05391,1.12288 12.30151,1.12288 17.70672,0.0591zm90.63044,-1.30018c4.98584,-3.25044 5.59159,-8.33295 1.30471,-10.63781c-4.65966,-2.42306 -10.20466,1.06378 -11.32298,7.09187c-0.27958,1.77297 -0.18639,2.48216 0.60576,3.72323c0.88534,1.47747 1.11832,1.53657 4.24029,1.30018c2.05025,-0.1773 4.00731,-0.76829 5.17223,-1.47747zm19.80357,-5.5553c0,-1.89117 -0.27958,-2.77765 -1.3979,-4.13693c-1.81727,-2.36396 -3.86752,-2.24576 -4.1005,0.1773c-0.18639,2.12756 0.55916,3.84143 2.37643,5.20071c2.37643,1.89117 3.12197,1.59567 3.12197,-1.24108zm-326.31616,-2.06846c6.10416,-1.59567 14.63134,-5.6144 26.32709,-12.41078c7.45546,-4.31422 11.64916,-7.38737 22.50617,-16.4886c15.98264,-13.47456 23.39151,-17.72968 33.92234,-19.50265c2.23664,-0.35459 2.23664,-0.41369 1.4445,-1.53657c-1.4445,-2.00936 -8.10781,-5.7917 -12.95386,-7.32827c-2.60941,-0.82739 -7.59525,-1.83207 -11.27638,-2.18666c-10.53084,-1.12288 -20.36273,-0.1182 -51.44267,5.25981c-7.73504,1.30018 -10.85701,1.53657 -20.7355,1.59567c-10.95021,0 -11.97533,-0.0591 -17.52033,-1.59567c-5.77798,-1.53657 -12.86067,-4.31422 -26.51348,-10.40141c-10.85701,-4.78701 -15.70306,-5.02341 -22.17999,-0.94558c-5.96437,3.72323 -11.36958,12.76537 -12.76748,21.39381c-0.88534,5.4371 -0.41937,13.41546 1.02513,17.43419c1.58429,4.37332 4.84605,8.74664 8.20101,10.9924c5.12563,3.48684 10.62403,4.72791 25.95432,6.02809c12.58109,1.06378 15.84285,1.77297 27.72499,6.02809c3.72773,1.30018 8.52718,2.89585 10.71722,3.48684c5.03244,1.30018 12.86067,1.41837 17.56693,0.1773zm-99.85657,-10.40141c0.55916,-5.96899 0.41937,-6.79638 -1.21151,-8.03746c-2.60941,-2.06846 -5.68479,-2.77765 -8.43399,-1.95026c-1.3513,0.41369 -2.93559,1.24108 -3.54134,1.89117l-1.16492,1.18198l0.88534,2.12756c1.95706,4.60972 6.33714,7.74196 10.9968,7.80106l2.14344,0.0591l0.32618,-3.07314zm-26.32709,-4.66882c1.67748,-0.76829 2.84239,-3.13224 2.84239,-5.85079c0,-1.47747 -0.18639,-1.77297 -1.07172,-1.77297c-0.55916,0 -1.53769,0.41369 -2.14344,0.94558c-1.02513,0.94558 -2.7958,5.08251 -2.84239,6.61908c0,0.88648 1.25811,0.94558 3.21517,0.0591zm441.08365,-10.22412c3.12197,-1.71387 4.38008,-6.85548 2.65601,-10.9333c-1.11832,-2.65945 -3.44815,-4.19602 -6.29054,-4.19602c-8.2476,0 -9.41252,11.70159 -1.49109,15.24753c1.95706,0.88648 3.26176,0.82739 5.12563,-0.1182zm-424.12248,-18.32067c0.83874,-0.41369 2.19004,-1.77297 3.07538,-3.01405c1.3513,-1.95026 1.53769,-2.54125 1.30471,-4.60972c-0.65235,-6.20539 -7.22248,-9.21943 -11.46277,-5.25981c-3.72773,3.42774 -3.58794,11.1697 0.18639,13.17906c1.49109,0.70919 5.26542,0.59099 6.8963,-0.29549zm281.21063,-26.18083c20.17634,-0.1182 36.34537,-0.47279 36.20558,-0.76829c-0.46597,-0.94558 -14.39836,-4.60972 -25.16218,-6.61908c-2.65601,-0.47279 -8.52718,-0.76829 -16.07584,-0.76829c-10.20466,0.0591 -12.62769,0.2364 -17.28735,1.35928c-6.52353,1.53657 -10.34445,3.07314 -14.63134,5.7326c-3.02878,1.89117 -3.12197,2.00936 -1.3979,1.71387c1.02513,-0.1773 18.26588,-0.47279 38.34902,-0.65009zm80.00641,-0.76829c16.40201,-2.36396 27.44541,-10.63781 30.3344,-22.93039c1.07172,-4.43242 0.97853,-7.62376 -0.32618,-9.39673c-2.7958,-3.78233 -8.76017,-5.4962 -19.43079,-5.4962c-8.89996,0 -33.40978,2.48216 -38.16264,3.84143c-6.05756,1.71387 -9.41252,5.25981 -13.18684,13.77005c-3.07538,6.91458 -6.29054,12.82447 -7.36227,13.47456c-0.60576,0.41369 -0.88534,0.82739 -0.65235,1.06378c1.4445,1.12288 20.31613,5.14161 27.5852,5.85079c4.79945,0.47279 17.28735,0.35459 21.20146,-0.1773zm-184.75562,-0.76829c0,-4.19602 -15.65647,-10.63781 -29.54226,-12.23348c-7.36227,-0.82739 -21.01508,-0.70919 -26.97945,0.29549c-8.52718,1.41837 -18.03289,4.07783 -18.03289,5.02341c0,0.2364 4.89265,0.59099 10.85701,0.82739c36.76474,1.35928 48.60028,2.48216 57.87301,5.6144c4.05391,1.35928 5.82458,1.47747 5.82458,0.47279zm70.59389,-4.37332c22.41298,-9.75132 23.01873,-9.81042 39.14116,-6.38269c8.48059,1.77297 11.09,2.12756 15.37689,1.95026c4.70626,-0.1773 5.40521,-0.35459 8.2476,-2.12756c4.93924,-3.07314 9.55231,-9.51493 13.7926,-19.14806c0.83874,-1.89117 3.58794,-9.33763 6.19735,-16.5477c5.4984,-15.42482 6.57012,-17.96608 10.43764,-24.70336c3.49475,-5.96899 4.89265,-8.86484 4.89265,-9.98772c0,-0.65009 -1.30471,-0.76829 -7.54865,-0.47279c-14.58474,0.65009 -28.51713,6.08719 -48.60028,18.79346c-8.38739,5.378 -22.78575,15.54302 -28.88991,20.50733c-16.12243,13.06086 -26.46688,27.8947 -26.46688,37.94152c0,1.83207 0.13979,3.66413 0.32618,4.01873c0.55916,1.18198 3.68113,0.2364 13.09365,-3.84143zm-61.74053,1.30018c0.46597,-0.70919 0.32618,-1.95026 -0.65235,-6.26449c-2.37643,-10.51961 -6.05756,-17.84788 -13.65281,-27.18551c-7.36227,-9.04214 -16.16903,-17.02049 -32.66423,-29.54947c-23.15852,-17.61148 -37.65007,-24.82155 -53.12015,-26.59452c-3.35496,-0.35459 -6.29054,-0.59099 -6.57012,-0.47279c-0.27958,0.1182 0.41937,1.71387 1.63088,3.48684c2.60941,4.01873 6.8497,14.89293 9.78529,25.11705c4.79945,16.7841 7.36227,25.05795 9.41252,30.02226c7.36227,18.26157 14.58474,22.3394 32.94381,18.49797c16.16903,-3.42774 18.07949,-3.01405 37.2773,7.21007c8.43399,4.49152 12.86067,6.50088 14.25857,6.55998c0.41937,0.0591 1.02513,-0.35459 1.3513,-0.82739zm-92.07493,-7.68286c5.82458,-0.76829 9.5989,-1.47747 13.41983,-2.42306l1.25811,-0.29549l-1.86386,-2.12756c-1.25811,-1.47747 -2.65601,-4.31422 -4.70626,-9.57403c-3.91412,-10.16502 -5.63819,-13.35636 -8.48059,-15.72032c-6.47693,-5.378 -23.29831,-8.80574 -43.38146,-8.86484c-12.02193,0 -15.28369,0.53189 -18.03289,2.89585l-1.53769,1.30018l0.0466,5.02341c0,4.19602 0.18639,5.4962 1.3513,8.51025c4.00731,10.75601 15.60987,18.32067 32.38465,21.27562c6.10416,1.06378 21.66743,1.06378 29.54226,0zm150.83328,-23.10768c11.0434,-11.2288 25.25537,-23.40318 40.35268,-34.51378l6.57012,-4.84611l1.95706,-7.21007c5.545,-20.50733 11.32298,-36.16855 19.66378,-53.24814c8.71357,-17.90698 9.92508,-21.92571 9.5989,-32.68171c-0.32618,-11.2879 -1.86386,-13.47456 -8.94655,-13.00177c-6.15075,0.35459 -11.74235,5.20071 -19.19781,16.4886c-4.61307,7.09187 -8.62038,14.30194 -17.75331,32.14982c-4.33349,8.45115 -11.88214,22.4576 -16.77478,31.14514c-20.50251,36.16855 -26.69987,50.175 -31.31293,70.38683c-2.09685,9.04214 -2.42302,12.17438 -1.58429,13.82915c0.69895,1.30018 0.74555,1.30018 6.10416,-5.6144c3.02878,-3.84143 8.10781,-9.63313 11.32298,-12.88357zm-50.79032,18.02518c0.93193,-2.24576 -0.69895,-16.37041 -3.07538,-26.77182c-3.35496,-14.65654 -7.36227,-24.70336 -21.20146,-52.95265c-4.51987,-9.27853 -11.46277,-23.87597 -15.37689,-32.50441c-13.60621,-29.66767 -22.1334,-46.27447 -26.74646,-51.88887c-4.24029,-5.14161 -8.01462,-7.38737 -12.76748,-7.38737c-1.95706,0 -4.00731,0.1773 -4.56647,0.41369c-1.3513,0.53189 -3.40155,5.6144 -3.91412,9.69223c-0.60576,4.43242 0.0466,11.1106 1.63088,17.13869c0.69895,2.48216 3.68113,10.81511 6.70991,18.43887c8.57378,21.74841 12.86067,35.57756 16.12243,52.00706c1.49109,7.44647 1.72408,8.09655 3.40155,10.04682c1.02513,1.12288 7.45546,7.21007 14.35176,13.41546c24.18365,21.9848 34.38831,33.5682 42.12335,48.04744c1.02513,1.95026 2.09685,3.54594 2.32983,3.54594c0.23298,0 0.65235,-0.53189 0.97853,-1.24108zm220.63502,-2.65945c3.86752,-2.36396 7.17588,-9.69223 7.17588,-16.01581l0,-3.25044l-1.49109,0.35459c-3.63454,0.88648 -8.15441,4.43242 -11.50937,8.98304c-1.81727,2.48216 -3.30836,4.96431 -3.30836,5.5553c0,1.47747 1.77067,4.13693 3.44815,5.08251c1.63088,0.94558 3.30836,0.70919 5.68479,-0.70919zm-192.67704,-8.03746c0.83874,-2.06846 4.61307,-10.8742 8.48059,-19.67995c14.95752,-34.04099 19.52399,-49.8795 20.59571,-71.50971c0.13979,-2.89585 0.37277,-6.97367 0.51256,-8.98304c0.09319,-2.06846 0.0466,-3.72323 -0.13979,-3.72323c-0.18639,0 -1.16492,1.77297 -2.09685,4.01873c-0.93193,2.18666 -4.33349,9.69223 -7.59525,16.6659c-15.56327,33.5682 -22.1334,55.7894 -22.1334,75.05565c0,5.90989 0.37277,11.81979 0.74555,11.81979c0.09319,0 0.83874,-1.65477 1.63088,-3.66413zm-19.05802,-8.09655c0.46597,-6.97367 0.41937,-9.39673 -0.23298,-16.07491c-1.3979,-14.65654 -4.75286,-26.53542 -15.2371,-54.60742c-6.9429,-18.49797 -9.31932,-25.35344 -9.31932,-26.65362c0,-0.47279 -0.18639,-0.82739 -0.41937,-0.82739c-0.60576,0 -1.4445,9.69223 -1.4445,16.9023c0.0466,11.52429 1.81727,23.28498 5.59159,36.28675c1.95706,6.73728 3.35496,10.81511 10.85701,31.61793c2.42302,6.85548 5.07903,14.77473 5.87117,17.67058c0.83874,2.95495 1.72408,5.6735 2.00365,6.14629c1.02513,1.53657 1.77067,-2.00936 2.32983,-10.46051zm-187.50482,-0.1182c1.25811,-0.59099 1.3513,-2.54125 0.32618,-6.85548c-1.02513,-4.37332 -3.54134,-7.32827 -9.22613,-10.8742l-4.75286,-2.95495l-0.13979,2.71855c-0.41937,8.27385 3.58794,17.13869 8.43399,18.61616c1.53769,0.47279 3.44815,0.2364 5.35861,-0.65009zm323.79995,-3.78233c4.00731,-1.35928 6.01096,-1.59567 17.84651,-2.06846c24.13705,-1.06378 29.0297,-2.60035 37.55688,-11.76069c3.91412,-4.13693 7.22248,-9.51493 9.17954,-14.77473c1.86386,-4.96431 2.28323,-11.64249 1.02513,-15.83851c-1.16492,-3.84143 -3.49475,-6.85548 -6.66332,-8.62844c-2.23664,-1.30018 -3.72773,-1.65477 -8.06122,-1.95026c-4.89265,-0.35459 -5.77798,-0.2364 -11.13659,1.41837c-23.39151,7.21007 -37.65007,21.21652 -45.01234,44.14691c-2.32983,7.15097 -2.23664,10.8742 0.13979,10.9333c0.32618,0 2.60941,-0.65009 5.12563,-1.47747zm74.13523,-8.15565c1.49109,-2.00936 2.42302,-5.3189 2.42302,-8.62844c0,-3.72323 -0.79214,-4.78701 -3.54134,-4.78701c-1.81727,0 -2.14344,0.1773 -2.56281,1.65477c-0.74555,2.42306 -0.32618,9.63313 0.65235,11.52429c0.97853,1.95026 1.72408,2.00936 3.02878,0.2364zm-323.47377,-5.08251c-0.60576,-8.74664 -2.37643,-14.83383 -6.52353,-22.75309c-2.7492,-5.20071 -9.13294,-13.59276 -13.51302,-17.72968c-14.44495,-13.59276 -33.1768,-19.38445 -42.7757,-13.29726c-9.41252,6.02809 -9.6921,20.74373 -0.60576,34.10009c5.91777,8.68754 10.90361,12.58807 19.3376,15.12933c2.7026,0.82739 11.41617,2.71855 19.43079,4.19602c7.96802,1.47747 15.84285,3.19134 17.47373,3.78233c3.77433,1.47747 4.51987,1.59567 6.15075,1.30018l1.3513,-0.2364l-0.32618,-4.49152zm337.40616,0.76829c1.63088,-3.19134 0.51256,-9.69223 -1.72408,-9.69223c-1.63088,0 -2.51622,2.54125 -2.14344,6.55998c0.37277,4.66882 0.93193,6.08719 2.14344,5.25981c0.51256,-0.35459 1.25811,-1.30018 1.72408,-2.12756zm-413.40526,-13.53366c0.46597,-1.30018 0.97853,-3.90053 1.07172,-5.7917c0.18639,-2.95495 0.0466,-3.60504 -0.88534,-4.90521c-1.4445,-1.95026 -3.77433,-1.95026 -5.03244,0.0591c-1.95706,3.25044 -1.63088,8.15565 0.88534,11.52429c1.72408,2.36396 2.7958,2.12756 3.96071,-0.88648zm400.17182,-2.71855c1.72408,-1.65477 2.51622,-5.20071 1.67748,-7.38737c-0.74555,-1.95026 -2.7492,-3.54594 -3.82092,-3.01405c-0.65235,0.29549 -0.79214,1.24108 -0.79214,5.08251c0,6.85548 0.51256,7.80106 2.93559,5.3189zm-414.84975,-0.82739c1.58429,-2.18666 1.91046,-7.91926 0.51256,-9.69223c-1.11832,-1.41837 -2.05025,-1.12288 -2.7958,0.88648c-0.93193,2.65945 -0.46597,10.28321 0.65235,10.28321c0.27958,0 1.02513,-0.65009 1.63088,-1.47747zm429.80727,-2.24576c0.37277,-0.70919 0.37277,-1.30018 0,-2.00936c-0.55916,-1.12288 -2.7026,-2.00936 -3.72773,-1.53657c-0.97853,0.47279 -0.79214,2.71855 0.32618,4.55062c0.88534,1.41837 1.07172,1.53657 1.95706,0.76829c0.55916,-0.41369 1.21151,-1.24108 1.4445,-1.77297zm-123.29467,-10.22412c33.73596,-16.9023 54.33166,-35.22297 60.66881,-54.01643c0.88534,-2.54125 1.11832,-4.37332 1.11832,-8.27385c0.0466,-4.49152 -0.09319,-5.378 -1.3513,-8.21475c-2.60941,-6.02809 -7.87483,-10.34231 -14.77113,-12.11528c-9.6921,-2.54125 -17.52033,0.2364 -23.95067,8.33295c-5.4984,7.03277 -13.746,24.11237 -22.0402,45.80168c-7.08269,18.49797 -10.20466,29.49037 -8.89996,31.49973c0.32618,0.47279 0.74555,0.88648 0.97853,0.88648c0.23298,0 3.96071,-1.77297 8.2476,-3.90053zm-292.20744,-4.19602c0.79214,-2.42306 0.65235,-8.03746 -0.23298,-9.16034c-0.37277,-0.47279 -1.07172,-0.1773 -2.60941,0.94558c-2.14344,1.59567 -2.93559,3.25044 -2.28323,4.66882c0.74555,1.59567 3.63454,5.7326 4.00731,5.7326c0.18639,0 0.69895,-1.00468 1.11832,-2.18666zm115.23345,-1.41837c0,-3.90053 -1.81727,-13.94735 -3.58794,-20.03454c-1.67748,-5.6144 -10.71722,-30.37685 -16.02924,-43.91051c-3.30836,-8.33295 -6.70991,-14.83383 -9.36592,-17.90698c-7.36227,-8.39205 -23.57789,-8.98304 -33.22339,-1.12288c-4.61307,3.72323 -6.57012,8.68754 -6.15075,15.66122c1.02513,17.37509 18.40567,38.00062 50.18457,59.68993c7.82823,5.378 15.74966,9.98772 17.14756,10.04682c0.88534,0 1.02513,-0.29549 1.02513,-2.42306zm283.0279,0.29549c0.41937,-1.35928 -0.88534,-4.72791 -2.28323,-5.90989c-1.49109,-1.24108 -2.56281,-0.65009 -3.26176,1.83207c-0.37277,1.41837 -0.27958,1.77297 1.07172,3.30954c1.67748,1.89117 4.00731,2.30486 4.47328,0.76829zm-56.33532,-1.35928c13.18684,-2.83675 23.15852,-7.32827 30.56739,-13.71095c4.75286,-4.07783 7.36227,-9.10124 7.40886,-14.18374c0,-6.20539 -3.54134,-14.30194 -7.40886,-16.9023c-5.40521,-3.60504 -10.71722,-0.53189 -24.8826,14.53834c-11.97533,12.64717 -20.12974,20.03454 -29.82184,26.94911c-2.7492,1.95026 -4.98584,3.72323 -4.98584,3.95963c0,0.76829 2.7492,0.94558 13.04705,0.76829c7.92143,-0.1182 11.83554,-0.47279 16.07584,-1.41837zm-355.67204,0.1182c1.02513,-1.18198 1.11832,-3.48684 0.09319,-3.95963c-0.93193,-0.47279 -3.16857,-0.47279 -4.1005,0c-0.97853,0.47279 -0.93193,2.54125 0.0466,3.90053c0.93193,1.30018 2.84239,1.35928 3.96071,0.0591zm425.70677,-0.88648c0.65235,-0.82739 0.74555,-5.14161 0.09319,-7.21007c-1.02513,-3.42774 -4.61307,-4.25512 -5.68479,-1.24108c-0.69895,2.00936 -0.18639,3.95963 1.95706,6.73728c1.95706,2.54125 2.7026,2.89585 3.63454,1.71387zm-171.94155,-5.6144c1.53769,-3.19134 5.59159,-10.69691 8.99315,-16.725c3.40155,-6.02809 8.94655,-15.83851 12.3947,-21.86661c13.88579,-24.58516 20.6423,-42.07844 20.6423,-53.72093c0,-12.23348 -8.57378,-14.47924 -16.5884,-4.31422c-10.57743,13.41546 -23.4381,52.30256 -27.72499,83.74319c-1.16492,8.62844 -1.67748,18.61616 -0.97853,18.61616c0.23298,0 1.72408,-2.60035 3.26176,-5.7326zm-78.18914,-9.51493c-0.74555,-15.36572 -1.91046,-25.05795 -4.65966,-39.41899c-5.59159,-28.95848 -14.53815,-50.29319 -23.81088,-56.73498c-2.09685,-1.47747 -3.02878,-1.71387 -5.82458,-1.71387c-3.72773,0 -4.61307,0.53189 -5.63819,3.60504c-1.86386,5.7917 0.97853,20.56643 6.8497,35.28206c1.67748,4.25512 8.10781,18.49797 14.25857,31.67703c6.15075,13.17906 12.53449,26.89002 14.16537,30.43595c1.58429,3.60504 3.26176,6.97367 3.63454,7.56466c0.69895,1.00468 0.74555,1.00468 1.11832,-0.1773c0.18639,-0.70919 0.18639,-5.4371 -0.09319,-10.51961zm-74.32162,7.09187c-0.27958,-0.29549 -3.58794,-2.83675 -7.45546,-5.7326c-13.97899,-10.40141 -15.74966,-12.17438 -27.95797,-27.7765c-12.53449,-16.01581 -14.02558,-17.43419 -18.96483,-17.43419c-1.49109,0 -3.44815,0.35459 -4.28689,0.82739c-2.32983,1.24108 -5.31202,4.90521 -6.70991,8.27385c-1.07172,2.60035 -1.25811,3.72323 -1.25811,8.33295c0,4.31422 0.18639,5.7326 1.02513,7.68286c4.93924,11.58339 19.71037,19.97544 42.7757,24.23056c8.43399,1.53657 23.71768,2.60035 22.83235,1.59567zm-82.52262,-6.67818c2.65601,-2.65945 2.56281,-5.85079 -0.27958,-5.85079c-2.46962,0 -5.87117,5.7326 -3.96071,6.67818c1.30471,0.70919 3.07538,0.35459 4.24029,-0.82739zm-14.63134,-3.84143c2.28323,-2.48216 3.35496,-5.85079 2.42302,-7.74196c-0.18639,-0.35459 -1.3979,-0.88648 -2.7026,-1.06378l-2.37643,-0.41369l-0.55916,2.65945c-0.97853,4.96431 -0.51256,8.09655 1.16492,8.09655c0.32618,0 1.21151,-0.70919 2.05025,-1.53657zm404.92467,-3.54594c0,-4.19602 -0.55916,-5.5553 -2.32983,-5.5553c-1.30471,0 -1.3979,0.1182 -1.3979,2.36396c0,3.84143 1.16492,5.96899 3.40155,6.44178c0.18639,0 0.32618,-1.41837 0.32618,-3.25044zm14.39836,-1.12288c0.79214,-1.18198 1.4445,-2.36396 1.4445,-2.65945c0,-0.2364 0.13979,-0.88648 0.27958,-1.35928c0.37277,-1.35928 -1.4445,-3.36864 -3.02878,-3.36864c-1.77067,0 -2.84239,1.89117 -2.84239,4.90521c0,4.84611 1.77067,5.90989 4.1471,2.48216zm-403.24719,-12.46988c1.07172,-0.53189 2.65601,-4.78701 2.46962,-6.61908c-0.18639,-2.18666 -1.86386,-2.42306 -3.40155,-0.47279c-1.25811,1.65477 -1.63088,5.4371 -0.60576,6.73728c0.65235,0.82739 0.55916,0.82739 1.53769,0.35459zm-13.09365,-2.95495c1.4445,-0.70919 1.77067,-2.42306 1.11832,-5.85079l-0.60576,-3.25044l-2.51622,0l-2.51622,0l0.27958,2.65945c0.65235,5.6735 1.86386,7.56466 4.24029,6.44178zm398.12156,-7.62376c0.13979,-2.89585 -1.21151,-5.96899 -3.02878,-6.85548c-2.98218,-1.41837 -3.02878,3.19134 -0.0466,7.50556c1.86386,2.65945 2.88899,2.42306 3.07538,-0.65009zm10.95021,-2.18666c2.46962,-4.25512 0.74555,-16.9023 -2.14344,-15.48392c-1.11832,0.53189 -2.19004,3.30954 -2.19004,5.5553c0,1.89117 1.30471,10.57871 1.72408,11.40609c0.41937,0.88648 1.63088,0.1773 2.60941,-1.47747zm-389.82736,-12.41078c2.51622,-3.42774 3.21517,-6.44178 1.67748,-7.44647c-2.05025,-1.35928 -4.1005,1.35928 -4.61307,6.26449c-0.27958,2.77765 -0.23298,3.07314 0.60576,3.07314c0.46597,0 1.53769,-0.88648 2.32983,-1.89117zm362.66153,-2.65945c0,-0.94558 0.13979,-2.24576 0.27958,-2.95495c0.18639,-0.88648 0.0466,-1.35928 -0.60576,-1.59567c-1.21151,-0.47279 -4.75286,-0.65009 -5.07903,-0.1773c-0.60576,0.70919 3.86752,6.32359 5.03244,6.32359c0.23298,0 0.37277,-0.70919 0.37277,-1.59567zm-374.54367,-0.2364c1.58429,-1.06378 2.7026,-5.08251 2.65601,-9.69223c-0.0466,-5.378 -0.46597,-7.03277 -1.67748,-7.26917c-1.72408,-0.35459 -3.07538,2.89585 -3.30836,8.09655c-0.18639,4.01873 0.46597,9.51493 1.11832,9.51493c0.13979,0 0.65235,-0.29549 1.21151,-0.65009zm389.68757,-8.80574c1.49109,-1.77297 1.21151,-3.19134 -1.16492,-5.96899c-3.96071,-4.60972 -10.43764,-4.60972 -9.55231,0c0.51256,2.54125 1.81727,5.02341 3.54134,6.44178c2.05025,1.83207 5.45181,1.59567 7.17588,-0.47279zm-360.09872,-6.26449c1.91046,-1.83207 1.95706,-2.89585 0.09319,-4.07783c-1.11832,-0.76829 -1.53769,-0.82739 -2.09685,-0.2364c-1.02513,1.06378 -2.05025,3.78233 -2.05025,5.4962c0,1.41837 0.09319,1.47747 1.25811,0.88648c0.74555,-0.35459 2.00365,-1.30018 2.7958,-2.06846zm332.42032,0.88648c0.83874,-1.06378 0.88534,-1.35928 0.27958,-2.48216c-1.3513,-2.65945 -2.93559,-3.54594 -6.66332,-3.84143l-3.58794,-0.29549l0.32618,1.71387c0.46597,2.30486 1.53769,3.72323 3.77433,5.02341c2.51622,1.47747 4.65966,1.41837 5.87117,-0.1182zm-344.02288,-9.04214c1.72408,-1.18198 4.1471,-4.43242 4.75286,-6.50088c0.69895,-2.48216 -0.23298,-3.54594 -3.16857,-3.54594c-4.51987,0 -9.36592,3.90053 -8.71357,6.97367c0.79214,3.36864 4.33349,4.90521 7.12928,3.07314zm323.24079,-1.18198c1.77067,-0.94558 2.56281,-2.48216 2.56281,-4.96431c0,-2.48216 -2.09685,-4.60972 -4.98584,-5.14161c-4.47328,-0.76829 -7.03609,2.18666 -6.05756,6.97367c0.27958,1.18198 0.93193,2.00936 2.32983,2.77765c2.32983,1.35928 4.00731,1.47747 6.15075,0.35459zm29.49566,-0.70919c0.74555,-0.65009 1.02513,-1.47747 1.02513,-2.95495c0,-3.95963 -3.49475,-6.73728 -8.57378,-6.73728c-1.86386,0 -2.19004,0.1773 -1.95706,0.94558c0.13979,0.53189 0.27958,1.41837 0.27958,2.00936c0,1.65477 2.7492,5.3189 4.89265,6.55998c2.28323,1.35928 2.98218,1.35928 4.33349,0.1773zm-324.4523,-2.36396c1.63088,-0.94558 2.88899,-3.72323 2.37643,-5.25981c-0.37277,-1.35928 -5.40521,-1.18198 -7.64185,0.2364c-1.67748,1.06378 -2.88899,3.25044 -2.88899,5.08251c0,1.24108 6.05756,1.18198 8.15441,-0.0591zm278.22845,-4.43242c1.07172,-1.12288 0.74555,-2.36396 -1.21151,-4.72791c-2.14344,-2.60035 -5.87117,-4.25512 -10.81042,-4.96431c-3.02878,-0.35459 -3.16857,-0.35459 -3.16857,0.88648c0,2.77765 2.7492,6.97367 5.545,8.39205c3.21517,1.65477 8.2476,1.89117 9.6455,0.41369zm-257.86572,-3.48684c3.35496,-1.18198 4.24029,-5.378 1.72408,-8.33295c-1.21151,-1.47747 -1.81727,-1.71387 -3.96071,-1.71387c-7.26907,0 -9.13294,6.85548 -2.65601,9.75132c2.19004,1.00468 2.7026,1.06378 4.89265,0.29549zm233.16951,-3.48684c1.95706,-1.12288 4.05391,-3.90053 3.77433,-5.02341c-0.09319,-0.35459 -1.21151,-1.35928 -2.46962,-2.24576c-5.26542,-3.72323 -9.97168,-2.36396 -9.97168,2.77765c0,2.30486 0.79214,3.84143 2.46962,4.72791c2.05025,1.12288 3.91412,1.06378 6.19735,-0.2364zm-261.31387,-1.53657c1.58429,-1.71387 2.56281,-4.31422 2.32983,-6.32359c-0.13979,-1.18198 -0.41937,-1.35928 -2.32983,-1.53657c-2.46962,-0.1773 -4.61307,0.76829 -6.75651,3.07314c-1.86386,2.00936 -1.95706,3.42774 -0.32618,5.02341c1.81727,1.83207 5.26542,1.71387 7.08269,-0.2364zm311.73142,0.1773c0.18639,-1.35928 -2.93559,-5.6144 -4.70626,-6.32359c-0.83874,-0.29549 -2.28323,-0.76829 -3.21517,-1.00468c-1.72408,-0.35459 -1.77067,-0.29549 -1.77067,1.35928c0,1.71387 0.97853,4.01873 2.32983,5.3189c1.95706,2.00936 7.08269,2.48216 7.36227,0.65009zm-262.3856,-1.77297c2.09685,-1.24108 4.79945,-4.66882 4.79945,-6.08719c0,-0.41369 0.13979,-1.18198 0.27958,-1.71387c0.23298,-0.82739 -0.18639,-0.94558 -3.12197,-0.94558c-2.09685,0.0591 -4.42668,0.47279 -5.91777,1.12288c-2.7958,1.24108 -7.08269,4.72791 -7.08269,5.7917c0,1.06378 2.14344,2.65945 4.1005,3.13224c2.28323,0.53189 4.56647,0.0591 6.9429,-1.30018zm22.27319,-4.78701c0.37277,-0.76829 0.83874,-2.60035 0.97853,-4.07783c0.41937,-3.78233 -0.74555,-5.20071 -4.1005,-5.14161c-2.84239,0 -6.33714,1.53657 -7.08269,3.01405c-0.79214,1.65477 0.65235,4.07783 3.44815,5.96899c3.16857,2.06846 5.73138,2.12756 6.75651,0.2364zm216.7209,-1.24108c0.79214,-0.82739 0.83874,-1.00468 0.18639,-2.48216c-1.25811,-2.89585 -2.93559,-3.95963 -6.05756,-3.95963c-3.63454,0 -4.79945,1.12288 -3.72773,3.60504c0.41937,0.88648 1.4445,2.06846 2.32983,2.60035c2.00365,1.30018 6.01096,1.35928 7.26907,0.2364zm-268.07038,-4.13693c2.05025,-1.06378 3.58794,-3.36864 3.72773,-5.4371c0.09319,-1.53657 -0.09319,-1.71387 -1.3513,-1.89117c-1.3979,-0.1773 -4.89265,1.47747 -6.24395,2.95495c-1.02513,1.06378 -2.7958,4.07783 -2.7958,4.66882c0,0.82739 4.98584,0.59099 6.66332,-0.29549zm232.14439,-1.24108c1.3513,-0.88648 2.88899,-3.60504 2.37643,-4.25512c-0.09319,-0.1773 -2.32983,0.1182 -4.89265,0.59099c-4.75286,0.88648 -7.03609,2.06846 -7.03609,3.66413c0,1.30018 7.40886,1.24108 9.55231,0zm15.60987,-1.24108c2.19004,-1.12288 2.32983,-1.95026 0.60576,-4.37332c-0.93193,-1.30018 -1.86386,-1.95026 -3.21517,-2.18666l-1.95706,-0.29549l-0.97853,3.36864c-0.55916,1.83207 -0.88534,3.60504 -0.74555,3.90053c0.46597,0.88648 4.24029,0.59099 6.29054,-0.41369zm-221.61355,-3.54594c0.60576,-0.29549 0.74555,-1.00468 0.65235,-3.42774c-0.13979,-2.89585 -0.18639,-3.01405 -1.63088,-3.19134c-4.61307,-0.59099 -10.11147,4.72791 -7.22248,6.97367c0.79214,0.65009 6.66332,0.41369 8.20101,-0.35459zm37.46369,-1.77297c-0.23298,-1.71387 -2.37643,-3.13224 -5.96437,-4.01873c-1.91046,-0.53189 -3.96071,-1.06378 -4.47328,-1.24108c-0.69895,-0.29549 -1.07172,-0.0591 -1.30471,0.65009c-0.97853,3.30954 2.28323,5.25981 9.17954,5.4962c2.28323,0.0591 2.7026,-0.1182 2.56281,-0.88648zm-19.47739,-3.78233c0,-2.42306 -1.07172,-4.96431 -2.46962,-5.7326c-1.58429,-0.94558 -4.70626,1.24108 -4.89265,3.48684c-0.18639,1.77297 0.88534,2.77765 3.63454,3.48684c3.35496,0.82739 3.72773,0.70919 3.72773,-1.24108z"/>
  </g>
 </g>
</svg>