<svg width="264.6" height="83.301" viewBox="0 0 264.6 83.301" xmlns="http://www.w3.org/2000/svg"><g id="svgGroup" stroke-linecap="round" fill-rule="evenodd" font-size="9pt" stroke="#000" stroke-width="0.25mm" fill="none" style="stroke:#000;stroke-width:0.25mm;fill:none"><path d="M 119.6 11.5 L 120.8 12.3 A 39.1 39.1 0 0 0 114.784 26.71 A 54.963 54.963 0 0 0 113.7 37.9 A 40.399 40.399 0 0 0 115.481 50.051 A 35.976 35.976 0 0 0 118.75 57.45 A 20.182 20.182 0 0 0 122.44 62.15 A 14.723 14.723 0 0 0 132.8 66.1 A 16.433 16.433 0 0 0 137.757 65.381 A 13.656 13.656 0 0 0 142.7 62.6 A 40.355 40.355 0 0 0 146.937 50.125 A 54.594 54.594 0 0 0 147.7 40.8 Q 147.7 25.157 142.038 17.424 A 19.393 19.393 0 0 0 141.4 16.6 A 11.87 11.87 0 0 0 138.293 13.842 A 10.283 10.283 0 0 0 132.9 12.4 Q 130.3 12.4 128.1 13.9 Q 125.9 15.4 125 17.8 Q 125 19.392 125.57 21.395 A 22.041 22.041 0 0 0 125.9 22.45 A 11.295 11.295 0 0 0 126.382 23.653 Q 126.991 24.938 127.776 25.535 A 2.693 2.693 0 0 0 128.2 25.8 L 128.4 26.5 A 20.557 20.557 0 0 0 125.812 30.525 A 18.287 18.287 0 0 0 125.1 32.2 A 0.617 0.617 0 0 1 124.975 32.244 Q 124.772 32.295 124.385 32.299 A 6.687 6.687 0 0 1 124.3 32.3 Q 120.948 32.3 120.717 26.751 A 20.493 20.493 0 0 1 120.7 25.9 Q 120.7 16.578 129.045 7.926 A 49.638 49.638 0 0 1 131.9 5.2 A 32.442 32.442 0 0 1 139.186 5.967 Q 146.127 7.567 150.35 12.5 A 23.863 23.863 0 0 1 154.926 20.998 Q 156.6 26.337 156.6 33.35 A 45.88 45.88 0 0 1 153.138 51.252 A 43.964 43.964 0 0 1 149.75 57.75 Q 142.9 68.6 130.7 73.3 Q 119 73.3 111.9 65.55 A 26.488 26.488 0 0 1 105.426 52.303 A 37.48 37.48 0 0 1 104.8 45.3 A 45.903 45.903 0 0 1 108.617 26.386 A 44.438 44.438 0 0 1 119.6 11.5 Z M 214.2 0 L 215.8 1.2 Q 210.5 8.1 209.4 15.6 Q 199.829 12.99 191.847 12.342 A 69.388 69.388 0 0 0 191.3 12.3 A 276.565 276.565 0 0 0 190.931 19.781 Q 190.611 28.458 190.601 40.167 A 888.714 888.714 0 0 0 190.6 40.95 Q 190.6 55.58 191.484 64.673 A 96.952 96.952 0 0 0 191.9 68.3 Q 196.9 68.8 202.9 70.2 L 202.6 72.6 A 136.671 136.671 0 0 0 193.372 71.932 A 171.138 171.138 0 0 0 186.55 71.8 Q 178.092 71.8 172.837 72.565 A 45.387 45.387 0 0 0 172.6 72.6 L 172.2 70.1 A 57.819 57.819 0 0 1 179.598 68.34 A 66.257 66.257 0 0 1 181.8 68 A 86.162 86.162 0 0 0 182.282 63.313 Q 182.9 55.4 182.9 42.2 L 182.9 36.3 Q 182.9 29.494 182.333 20.561 A 435.857 435.857 0 0 0 181.7 12 L 179.1 12 Q 168.026 12 164.438 14.818 A 5.582 5.582 0 0 0 164 15.2 A 5.081 5.081 0 0 0 163.639 16.202 Q 163.376 17.222 163.317 18.709 A 22.663 22.663 0 0 0 163.3 19.6 Q 163.3 21.952 163.915 23.136 A 2.642 2.642 0 0 0 164.3 23.7 L 164.2 24.4 Q 161.7 25.9 159.2 28.6 A 2.861 2.861 0 0 1 158.052 28.268 A 2.77 2.77 0 0 1 157.25 27.6 Q 156.5 26.7 156.5 25.5 Q 156.5 21.109 161.239 15.191 A 46.008 46.008 0 0 1 162.4 13.8 Q 168.009 7.336 172.894 5.39 A 13.6 13.6 0 0 1 173.4 5.2 Q 180.3 5.5 189.25 6.4 A 339.148 339.148 0 0 0 193.403 6.794 Q 199.15 7.3 202 7.3 A 38.662 38.662 0 0 0 203.988 7.253 Q 206.335 7.131 207.7 6.7 Q 212.3 2.3 214.2 0 Z M 259.4 66.3 L 260.8 67.7 Q 253.5 79.1 241 83.3 A 27.538 27.538 0 0 1 234.755 82.629 A 19.428 19.428 0 0 1 226.9 78.9 Q 221.4 74.5 219.15 67.6 A 41.138 41.138 0 0 1 217.694 61.466 Q 217.173 58.271 216.994 54.59 A 82.219 82.219 0 0 1 216.9 50.6 A 71.705 71.705 0 0 1 218.584 34.881 A 65.25 65.25 0 0 1 219.45 31.45 Q 222 22.4 228.3 15.15 Q 234.6 7.9 244 5.2 A 115.241 115.241 0 0 1 263.945 6.983 A 126.211 126.211 0 0 1 264.6 7.1 L 264.5 9.3 Q 261.9 9.3 259.7 10.2 A 39.417 39.417 0 0 0 257.73 16.237 Q 256.825 19.944 256.4 24.3 L 253.9 24.3 Q 253 19.6 253 15.3 Q 247.7 12.4 241.35 12.4 A 17.371 17.371 0 0 0 236.414 13.07 A 13.713 13.713 0 0 0 230.9 16.2 Q 225.8 26.5 225.8 42.7 A 111.055 111.055 0 0 0 226.094 51.088 Q 226.722 59.348 228.694 64.579 A 20.849 20.849 0 0 0 230.5 68.3 A 14.129 14.129 0 0 0 234.761 72.746 A 16.872 16.872 0 0 0 235.55 73.25 Q 238.8 75.2 243.15 75.2 Q 247.5 75.2 251.95 72.65 A 25.807 25.807 0 0 0 258.628 67.23 A 24.458 24.458 0 0 0 259.4 66.3 Z M 22.3 74 L 20.2 73.5 A 79.8 79.8 0 0 0 21.44 65.971 Q 22.328 58.62 22.537 48.562 A 310.148 310.148 0 0 0 22.6 42.15 Q 22.6 22.071 21.733 12.355 A 103.424 103.424 0 0 0 21.7 12 A 65.568 65.568 0 0 0 17.227 12.221 Q 10.515 12.805 7.926 14.831 A 5.363 5.363 0 0 0 7.5 15.2 A 5.081 5.081 0 0 0 7.139 16.202 Q 6.876 17.222 6.817 18.709 A 22.663 22.663 0 0 0 6.8 19.6 Q 6.8 21.952 7.415 23.136 A 2.642 2.642 0 0 0 7.8 23.7 L 7.7 24.4 Q 5.2 25.9 2.7 28.6 A 2.861 2.861 0 0 1 1.552 28.268 A 2.77 2.77 0 0 1 0.75 27.6 Q 0 26.7 0 25.5 Q 0 20.9 5.25 14.6 A 51.132 51.132 0 0 1 8.647 10.886 Q 10.415 9.146 12.128 7.875 A 21.466 21.466 0 0 1 15.3 5.9 Q 21.808 6.513 33.123 6.656 A 583.155 583.155 0 0 0 40.5 6.7 Q 67.8 6.7 67.8 33.2 Q 67.8 47.1 60.5 58.4 Q 53.2 69.7 40.7 73.3 Q 34.546 73.3 27.15 70.524 A 61.838 61.838 0 0 1 24.6 69.5 A 29.857 29.857 0 0 0 23.645 71.057 Q 23.179 71.875 22.843 72.611 A 12.21 12.21 0 0 0 22.3 74 Z M 38.9 11.4 A 70.174 70.174 0 0 0 35.693 11.469 Q 33.15 11.586 31.2 11.9 A 147.304 147.304 0 0 0 30.807 17.05 Q 30.3 25.45 30.3 37.9 A 918.342 918.342 0 0 0 30.332 45.712 Q 30.403 54.125 30.64 59.965 A 206.105 206.105 0 0 0 30.8 63.3 A 24.913 24.913 0 0 0 39.338 65.879 A 31.166 31.166 0 0 0 43.1 66.1 A 22.534 22.534 0 0 0 47.295 65.734 Q 49.703 65.277 51.592 64.25 A 11.617 11.617 0 0 0 53.8 62.7 Q 58.9 53.4 58.9 39.7 A 71.009 71.009 0 0 0 58.506 31.946 Q 57.605 23.776 54.65 18.7 Q 50.4 11.4 38.9 11.4 Z M 75.4 43 L 80 43 Q 88.8 43 97.2 42 L 98 42.5 L 97.4 46.7 L 75.7 48.2 L 74.8 47.6 L 75.4 43 Z" vector-effect="non-scaling-stroke"/></g></svg>